<?xml version="1.0" encoding="UTF-8" standalone="no"?>
<!DOCTYPE svg PUBLIC "-//W3C//DTD SVG 1.1//EN" "http://www.w3.org/Graphics/SVG/1.1/DTD/svg11.dtd">
<svg width="100%" height="100%" viewBox="0 0 23 28" version="1.1" xmlns="http://www.w3.org/2000/svg" xmlns:xlink="http://www.w3.org/1999/xlink" xml:space="preserve" xmlns:serif="http://www.serif.com/" style="fill-rule:evenodd;clip-rule:evenodd;stroke-linejoin:round;stroke-miterlimit:2;">
    <g transform="matrix(1,0,0,1,-0.657227,-0.686035)">
        <path d="M11.859,27.743C11.534,27.743 11.204,27.687 10.879,27.57C10.554,27.452 10.263,27.279 10.005,27.043C8.487,25.643 7.149,24.277 5.978,22.949C4.813,21.616 3.838,20.328 3.054,19.079C2.27,17.83 1.677,16.626 1.268,15.472C0.859,14.318 0.657,13.215 0.657,12.162C0.657,8.662 1.783,5.872 4.035,3.794C6.286,1.722 8.896,0.686 11.859,0.686C14.822,0.686 17.432,1.722 19.683,3.8C21.935,5.878 23.06,8.667 23.06,12.168C23.06,13.221 22.853,14.318 22.45,15.478C22.041,16.632 21.447,17.836 20.663,19.085C19.879,20.334 18.905,21.622 17.74,22.955C16.575,24.288 15.23,25.649 13.713,27.049C13.455,27.284 13.164,27.458 12.839,27.575C12.514,27.693 12.184,27.749 11.859,27.749L11.859,27.743ZM11.859,24.982C14.704,22.367 16.816,19.992 18.193,17.858C19.571,15.724 20.26,13.826 20.26,12.168C20.26,9.625 19.448,7.541 17.829,5.917C16.205,4.293 14.217,3.486 11.859,3.486C9.501,3.486 7.513,4.299 5.888,5.917C4.264,7.541 3.458,9.625 3.458,12.168C3.458,13.826 4.147,15.719 5.524,17.858C6.902,19.992 9.014,22.367 11.859,24.982ZM11.859,18.889C12.839,18.889 13.769,18.693 14.642,18.295C15.516,17.897 16.295,17.337 16.972,16.615C17.09,16.497 17.174,16.363 17.236,16.211C17.292,16.06 17.325,15.903 17.325,15.741C17.325,15.483 17.258,15.248 17.135,15.041C17.006,14.828 16.838,14.654 16.625,14.514C15.88,14.117 15.107,13.814 14.318,13.607C13.522,13.394 12.705,13.293 11.864,13.293C11.024,13.293 10.207,13.4 9.411,13.607C8.616,13.82 7.849,14.122 7.104,14.514C6.891,14.632 6.728,14.794 6.611,15.007C6.493,15.22 6.437,15.45 6.437,15.707C6.437,15.87 6.46,16.027 6.504,16.178C6.549,16.329 6.633,16.475 6.751,16.615C7.429,17.337 8.201,17.897 9.081,18.295C9.96,18.693 10.884,18.889 11.864,18.889L11.859,18.889ZM11.859,11.888C12.632,11.888 13.287,11.613 13.836,11.064C14.385,10.515 14.659,9.855 14.659,9.087C14.659,8.32 14.385,7.659 13.836,7.11C13.287,6.561 12.626,6.287 11.859,6.287C11.092,6.287 10.431,6.561 9.882,7.11C9.333,7.659 9.058,8.32 9.058,9.087C9.058,9.855 9.333,10.515 9.882,11.064C10.431,11.613 11.092,11.888 11.859,11.888Z" style="fill:rgb(153,153,153);fill-rule:nonzero;"/>
    </g>
</svg>
