<?xml version="1.0" encoding="UTF-8" standalone="no"?>
<!DOCTYPE svg PUBLIC "-//W3C//DTD SVG 1.1//EN" "http://www.w3.org/Graphics/SVG/1.1/DTD/svg11.dtd">
<svg width="100%" height="100%" viewBox="0 0 32 32" version="1.1" xmlns="http://www.w3.org/2000/svg" xmlns:xlink="http://www.w3.org/1999/xlink" xml:space="preserve" xmlns:serif="http://www.serif.com/" style="fill-rule:evenodd;clip-rule:evenodd;stroke-linejoin:round;stroke-miterlimit:2;">
    <g transform="matrix(20.5915,0,0,20.5915,-249.988,-199.558)">
        <circle cx="12.917" cy="10.468" r="0.777" style="fill:rgb(0,178,149);"/>
    </g>
    <g transform="matrix(1,0,0,1,6.99336,7.04299)">
        <path d="M2.024,17.937C1.177,17.937 0.573,17.558 0.22,16.8C-0.139,16.043 -0.05,15.34 0.484,14.697L6.017,7.967L6.017,1.986L5.02,1.986C4.736,1.986 4.501,1.891 4.312,1.697C4.123,1.507 4.023,1.268 4.023,0.989C4.023,0.71 4.118,0.47 4.312,0.276C4.506,0.081 4.741,-0.008 5.02,-0.008L12.996,-0.008C13.28,-0.008 13.514,0.086 13.703,0.276C13.893,0.465 13.993,0.705 13.993,0.989C13.993,1.273 13.898,1.507 13.703,1.697C13.514,1.886 13.275,1.986 12.996,1.986L11.999,1.986L11.999,7.967L17.532,14.697C18.065,15.345 18.15,16.048 17.796,16.8C17.437,17.558 16.839,17.937 15.991,17.937L2.024,17.937ZM2.024,15.943L15.981,15.943L10,8.665L10,1.986L8.006,1.986L8.006,8.665L2.024,15.943ZM4.018,14.946L13.988,14.946L10.598,10.958L7.408,10.958L4.018,14.946Z" style="fill:white;fill-rule:nonzero;"/>
    </g>
</svg>
