<?xml version="1.0" encoding="UTF-8" standalone="no"?>
<!DOCTYPE svg PUBLIC "-//W3C//DTD SVG 1.1//EN" "http://www.w3.org/Graphics/SVG/1.1/DTD/svg11.dtd">
<svg width="100%" height="100%" viewBox="0 0 32 32" version="1.1" xmlns="http://www.w3.org/2000/svg" xmlns:xlink="http://www.w3.org/1999/xlink" xml:space="preserve" xmlns:serif="http://www.serif.com/" style="fill-rule:evenodd;clip-rule:evenodd;stroke-linejoin:round;stroke-miterlimit:2;">
    <g transform="matrix(20.5915,0,0,20.5915,-249.988,-199.558)">
        <circle cx="12.917" cy="10.468" r="0.777"/>
    </g>
    <g transform="matrix(1,0,0,1,6.99765,6.76821)">
        <path d="M0,12.508L0,9.215C0,8.822 0.137,8.486 0.417,8.211C0.692,7.936 1.028,7.794 1.421,7.794C1.814,7.794 2.151,7.932 2.425,8.211C2.7,8.491 2.842,8.822 2.842,9.215L2.842,12.508C2.842,12.981 2.695,13.336 2.406,13.573C2.113,13.81 1.786,13.929 1.421,13.929C1.056,13.929 0.729,13.81 0.436,13.573C0.142,13.336 0,12.981 0,12.508ZM2.274,18.263C1.862,18.263 1.577,18.069 1.407,17.685C1.241,17.296 1.307,16.955 1.611,16.652L5.495,12.768C5.67,12.593 5.878,12.498 6.125,12.484C6.371,12.47 6.589,12.545 6.778,12.721L9.478,15.042L14.784,9.736L14.215,9.736C13.945,9.736 13.723,9.646 13.543,9.462C13.363,9.282 13.268,9.054 13.268,8.789C13.268,8.524 13.358,8.296 13.543,8.112C13.723,7.932 13.95,7.842 14.215,7.842L17.057,7.842C17.327,7.842 17.55,7.932 17.73,8.112C17.91,8.292 18.005,8.519 18.005,8.789L18.005,11.631C18.005,11.901 17.915,12.124 17.73,12.304C17.545,12.484 17.323,12.579 17.057,12.579C16.792,12.579 16.565,12.489 16.385,12.304C16.205,12.124 16.11,11.896 16.11,11.631L16.11,11.063L10.189,16.984C10.014,17.159 9.805,17.254 9.559,17.268C9.313,17.282 9.099,17.206 8.905,17.031L6.205,14.71L2.937,17.979C2.856,18.059 2.757,18.125 2.643,18.177C2.525,18.234 2.402,18.263 2.274,18.263ZM4.737,9.452L4.737,5.426C4.737,5.033 4.874,4.696 5.154,4.422C5.428,4.147 5.765,4.005 6.158,4.005C6.551,4.005 6.887,4.142 7.162,4.422C7.437,4.701 7.579,5.033 7.579,5.426L7.579,9.452C7.579,9.845 7.442,10.182 7.162,10.456C6.887,10.731 6.551,10.873 6.158,10.873C5.765,10.873 5.428,10.736 5.154,10.456C4.879,10.177 4.737,9.845 4.737,9.452ZM9.474,9.239L9.474,1.636C9.474,1.243 9.611,0.907 9.891,0.632C10.165,0.357 10.502,0.215 10.895,0.215C11.288,0.215 11.624,0.353 11.899,0.632C12.174,0.912 12.316,1.243 12.316,1.636L12.316,9.239C12.316,9.713 12.169,10.068 11.88,10.305C11.586,10.542 11.259,10.66 10.895,10.66C10.53,10.66 10.203,10.542 9.909,10.305C9.616,10.068 9.474,9.713 9.474,9.239Z" style="fill:white;fill-rule:nonzero;"/>
    </g>
</svg>
