<?xml version="1.0" encoding="UTF-8" standalone="no"?>
<!DOCTYPE svg PUBLIC "-//W3C//DTD SVG 1.1//EN" "http://www.w3.org/Graphics/SVG/1.1/DTD/svg11.dtd">
<svg width="100%" height="100%" viewBox="0 0 32 32" version="1.1" xmlns="http://www.w3.org/2000/svg" xmlns:xlink="http://www.w3.org/1999/xlink" xml:space="preserve" xmlns:serif="http://www.serif.com/" style="fill-rule:evenodd;clip-rule:evenodd;stroke-linejoin:round;stroke-miterlimit:2;">
    <g transform="matrix(20.5915,0,0,20.5915,-249.988,-199.558)">
        <circle cx="12.917" cy="10.468" r="0.777" style="fill:rgb(235,111,153);"/>
    </g>
    <g transform="matrix(1,0,0,1,7,6.79191)">
        <path d="M6.3,18.215C5.805,18.215 5.382,18.04 5.027,17.684C4.671,17.329 4.5,16.91 4.5,16.415L4.5,13.715L1.8,13.715C1.305,13.715 0.882,13.54 0.527,13.184C0.171,12.829 0,12.41 0,11.915L0,6.515C0,6.02 0.175,5.597 0.527,5.242C0.877,4.891 1.305,4.715 1.8,4.715L4.5,4.715L4.5,2.015C4.5,1.52 4.676,1.097 5.027,0.742C5.378,0.391 5.805,0.215 6.3,0.215L11.7,0.215C12.195,0.215 12.618,0.391 12.974,0.742C13.325,1.093 13.5,1.52 13.5,2.015L13.5,4.715L16.2,4.715C16.695,4.715 17.118,4.891 17.474,5.242C17.825,5.593 18,6.02 18,6.515L18,11.915C18,12.41 17.825,12.833 17.474,13.184C17.123,13.535 16.695,13.715 16.2,13.715L13.5,13.715L13.5,16.415C13.5,16.91 13.325,17.333 12.974,17.684C12.623,18.035 12.195,18.215 11.7,18.215L6.3,18.215ZM1.8,8.315L6.3,8.315C6.449,8.315 6.593,8.351 6.728,8.428C6.863,8.504 6.966,8.599 7.043,8.72L7.83,9.89L9.045,6.245C9.104,6.065 9.216,5.917 9.374,5.795C9.531,5.674 9.707,5.615 9.9,5.615C10.049,5.615 10.193,5.651 10.328,5.728C10.463,5.804 10.566,5.899 10.643,6.02L12.173,8.315L16.2,8.315L16.2,6.515L12.6,6.515C12.344,6.515 12.132,6.43 11.961,6.254C11.79,6.083 11.7,5.867 11.7,5.615L11.7,2.015L6.3,2.015L6.3,5.615C6.3,5.872 6.215,6.083 6.039,6.254C5.868,6.425 5.652,6.515 5.4,6.515L1.8,6.515L1.8,8.315ZM1.8,10.115L1.8,11.915L5.4,11.915C5.657,11.915 5.868,12.001 6.039,12.172C6.21,12.343 6.3,12.559 6.3,12.815L6.3,16.415L11.7,16.415L11.7,12.815C11.7,12.559 11.786,12.347 11.961,12.172C12.137,11.996 12.348,11.915 12.6,11.915L16.2,11.915L16.2,10.115L11.7,10.115C11.552,10.115 11.408,10.079 11.273,10.003C11.137,9.926 11.025,9.832 10.935,9.71L10.17,8.54L8.955,12.185C8.897,12.365 8.784,12.514 8.618,12.635C8.451,12.757 8.271,12.815 8.078,12.815C7.929,12.815 7.785,12.779 7.65,12.703C7.515,12.626 7.412,12.532 7.335,12.41L5.805,10.115L1.8,10.115Z" style="fill:white;fill-rule:nonzero;"/>
    </g>
</svg>
