<?xml version="1.0" encoding="UTF-8" standalone="no"?>
<!DOCTYPE svg PUBLIC "-//W3C//DTD SVG 1.1//EN" "http://www.w3.org/Graphics/SVG/1.1/DTD/svg11.dtd">
<svg width="100%" height="100%" viewBox="0 0 32 32" version="1.1" xmlns="http://www.w3.org/2000/svg" xmlns:xlink="http://www.w3.org/1999/xlink" xml:space="preserve" xmlns:serif="http://www.serif.com/" style="fill-rule:evenodd;clip-rule:evenodd;stroke-linejoin:round;stroke-miterlimit:2;">
    <g transform="matrix(3.42783,0,0,3.42783,-17.7413,-35.5415)">
        <circle cx="9.843" cy="15.036" r="4.668" style="fill:white;"/>
    </g>
    <g transform="matrix(1,0,0,1,7,5.56831)">
        <path d="M1.799,19.135C1.305,19.135 0.881,18.955 0.527,18.598C0.174,18.241 0,17.806 0,17.303L0,4.475C0,3.972 0.177,3.54 0.527,3.18C0.881,2.823 1.305,2.643 1.799,2.643L2.701,2.643L2.701,1.725C2.701,1.467 2.787,1.249 2.958,1.073C3.128,0.896 3.345,0.811 3.599,0.811C3.852,0.811 4.066,0.899 4.24,1.073C4.413,1.249 4.5,1.467 4.5,1.725L4.5,2.643L11.701,2.643L11.701,1.725C11.701,1.467 11.788,1.249 11.961,1.073C12.135,0.896 12.348,0.811 12.602,0.811C12.856,0.811 13.069,0.899 13.243,1.073C13.416,1.249 13.5,1.467 13.5,1.725L13.5,2.643L14.401,2.643C14.895,2.643 15.319,2.823 15.673,3.18C16.024,3.54 16.201,3.972 16.201,4.475L16.201,8.758C16.201,9.019 16.114,9.237 15.94,9.41C15.767,9.584 15.553,9.675 15.299,9.675C15.046,9.675 14.832,9.587 14.658,9.41C14.485,9.234 14.401,9.016 14.401,8.758L14.401,8.139L1.799,8.139L1.799,17.303L7.02,17.303C7.274,17.303 7.488,17.391 7.661,17.568C7.835,17.745 7.918,17.962 7.918,18.22C7.918,18.479 7.832,18.696 7.661,18.873C7.488,19.05 7.274,19.135 7.02,19.135L1.799,19.135ZM1.799,6.307L14.398,6.307L14.398,4.475L1.799,4.475L1.799,6.307ZM13.5,20.052C12.255,20.052 11.193,19.607 10.315,18.713C9.437,17.819 9,16.738 9,15.471C9,14.203 9.437,13.122 10.315,12.228C11.193,11.334 12.255,10.889 13.5,10.889C14.745,10.889 15.807,11.334 16.685,12.228C17.563,13.122 18,14.203 18,15.471C18,16.738 17.563,17.819 16.685,18.713C15.807,19.607 14.745,20.052 13.5,20.052ZM13.947,15.287L13.947,13.18C13.947,13.057 13.904,12.952 13.814,12.86C13.724,12.768 13.62,12.724 13.5,12.724C13.38,12.724 13.276,12.768 13.186,12.86C13.096,12.952 13.053,13.057 13.053,13.18L13.053,15.263C13.053,15.386 13.076,15.505 13.119,15.617C13.163,15.732 13.233,15.834 13.323,15.926L14.695,17.323C14.785,17.415 14.889,17.459 15.009,17.459C15.129,17.459 15.233,17.415 15.323,17.323C15.413,17.231 15.456,17.126 15.456,17.004C15.456,16.881 15.413,16.776 15.323,16.684L13.951,15.287L13.947,15.287Z" style="fill:rgb(33,134,212);fill-rule:nonzero;"/>
    </g>
</svg>
