<?xml version="1.0" encoding="UTF-8" standalone="no"?>
<!DOCTYPE svg PUBLIC "-//W3C//DTD SVG 1.1//EN" "http://www.w3.org/Graphics/SVG/1.1/DTD/svg11.dtd">
<svg width="100%" height="100%" viewBox="0 0 22 22" version="1.1" xmlns="http://www.w3.org/2000/svg" xmlns:xlink="http://www.w3.org/1999/xlink" xml:space="preserve" xmlns:serif="http://www.serif.com/" style="fill-rule:evenodd;clip-rule:evenodd;stroke-linejoin:round;stroke-miterlimit:2;">
    <path d="M2.2,17.6C1.595,17.6 1.078,17.386 0.644,16.956C0.209,16.528 0,16.005 0,15.4L0,2.2C0,1.595 0.215,1.078 0.644,0.649C1.073,0.22 1.595,0 2.2,0L19.8,0C20.405,0 20.922,0.215 21.357,0.649C21.786,1.078 22,1.595 22,2.2L22,15.4C22,16.005 21.786,16.522 21.357,16.956C20.927,17.386 20.405,17.6 19.8,17.6L2.2,17.6ZM2.2,7.7L6.6,7.7L6.6,2.2L2.2,2.2L2.2,7.7ZM6.6,15.4L6.6,9.9L2.2,9.9L2.2,15.4L6.6,15.4ZM13.2,7.7L13.2,2.2L8.8,2.2L8.8,7.7L13.2,7.7ZM13.2,15.4L13.2,9.9L8.8,9.9L8.8,15.4L13.2,15.4ZM19.8,7.7L19.8,2.2L15.4,2.2L15.4,7.7L19.8,7.7ZM19.8,15.4L19.8,9.9L15.4,9.9L15.4,15.4L19.8,15.4Z" style="fill:rgb(51,51,51);fill-rule:nonzero;"/>
</svg>
