<?xml version="1.0" encoding="UTF-8" standalone="no"?>
<!DOCTYPE svg PUBLIC "-//W3C//DTD SVG 1.1//EN" "http://www.w3.org/Graphics/SVG/1.1/DTD/svg11.dtd">
<svg width="100%" height="100%" viewBox="0 0 22 22" version="1.1" xmlns="http://www.w3.org/2000/svg" xmlns:xlink="http://www.w3.org/1999/xlink" xml:space="preserve" xmlns:serif="http://www.serif.com/" style="fill-rule:evenodd;clip-rule:evenodd;stroke-linejoin:round;stroke-miterlimit:2;">
    <g transform="matrix(1.22222,0,0,1.22222,0,0)">
        <path d="M10.35,18C8.73,18 7.35,17.43 6.21,16.29C5.07,15.15 4.5,13.77 4.5,12.15L4.5,11.633C3.21,11.423 2.138,10.819 1.283,9.821C0.428,8.824 0,7.65 0,6.3L0,1.8C0,1.545 0.086,1.331 0.259,1.158C0.431,0.986 0.645,0.9 0.9,0.9L2.7,0.9C2.7,0.645 2.786,0.431 2.958,0.258C3.131,0.086 3.345,0 3.6,0C3.855,0 4.069,0.086 4.242,0.258C4.414,0.431 4.5,0.645 4.5,0.9L4.5,2.7C4.5,2.955 4.414,3.169 4.242,3.342C4.069,3.514 3.855,3.6 3.6,3.6C3.345,3.6 3.131,3.514 2.958,3.342C2.786,3.169 2.7,2.955 2.7,2.7L1.8,2.7L1.8,6.3C1.8,7.29 2.153,8.137 2.858,8.843C3.563,9.548 4.41,9.9 5.4,9.9C6.39,9.9 7.238,9.548 7.943,8.843C8.648,8.137 9,7.29 9,6.3L9,2.7L8.1,2.7C8.1,2.955 8.014,3.169 7.842,3.342C7.669,3.514 7.455,3.6 7.2,3.6C6.945,3.6 6.731,3.514 6.559,3.342C6.386,3.169 6.3,2.955 6.3,2.7L6.3,0.9C6.3,0.645 6.386,0.431 6.559,0.258C6.731,0.086 6.945,0 7.2,0C7.455,0 7.669,0.086 7.842,0.258C8.014,0.431 8.1,0.645 8.1,0.9L9.9,0.9C10.155,0.9 10.369,0.986 10.542,1.158C10.714,1.331 10.8,1.545 10.8,1.8L10.8,6.3C10.8,7.65 10.373,8.824 9.518,9.821C8.663,10.819 7.59,11.423 6.3,11.633L6.3,12.15C6.3,13.275 6.694,14.231 7.481,15.019C8.269,15.806 9.225,16.2 10.35,16.2C11.475,16.2 12.431,15.806 13.219,15.019C14.006,14.231 14.4,13.275 14.4,12.15L14.4,10.643C13.875,10.448 13.444,10.121 13.106,9.664C12.769,9.206 12.6,8.685 12.6,8.1C12.6,7.35 12.863,6.713 13.387,6.188C13.913,5.662 14.55,5.4 15.3,5.4C16.05,5.4 16.688,5.662 17.213,6.188C17.738,6.713 18,7.35 18,8.1C18,8.685 17.831,9.206 17.494,9.664C17.156,10.121 16.725,10.448 16.2,10.643L16.2,12.15C16.2,13.77 15.63,15.15 14.49,16.29C13.35,17.43 11.97,18 10.35,18ZM15.3,9C15.555,9 15.769,8.914 15.941,8.741C16.114,8.569 16.2,8.355 16.2,8.1C16.2,7.845 16.114,7.631 15.941,7.458C15.769,7.286 15.555,7.2 15.3,7.2C15.045,7.2 14.831,7.286 14.659,7.458C14.486,7.631 14.4,7.845 14.4,8.1C14.4,8.355 14.486,8.569 14.659,8.741C14.831,8.914 15.045,9 15.3,9Z" style="fill:rgb(33,134,212);fill-rule:nonzero;"/>
    </g>
</svg>
