<?xml version="1.0" encoding="UTF-8" standalone="no"?>
<!DOCTYPE svg PUBLIC "-//W3C//DTD SVG 1.1//EN" "http://www.w3.org/Graphics/SVG/1.1/DTD/svg11.dtd">
<svg width="100%" height="100%" viewBox="0 0 32 32" version="1.1" xmlns="http://www.w3.org/2000/svg" xmlns:xlink="http://www.w3.org/1999/xlink" xml:space="preserve" xmlns:serif="http://www.serif.com/" style="fill-rule:evenodd;clip-rule:evenodd;stroke-linejoin:round;stroke-miterlimit:2;">
    <g transform="matrix(20.5915,0,0,20.5915,-249.988,-199.558)">
        <circle cx="12.917" cy="10.468" r="0.777" style="fill:rgb(10,182,222);"/>
    </g>
    <g transform="matrix(1,0,0,1,7,7.00365)">
        <path d="M5.625,18C4.058,18 2.729,17.454 1.638,16.363C0.546,15.271 0,13.942 0,12.375C0,11.625 0.142,10.908 0.425,10.225C0.708,9.542 1.117,8.933 1.65,8.4L8.4,1.65C8.933,1.117 9.542,0.708 10.225,0.425C10.908,0.142 11.625,0 12.375,0C13.942,0 15.271,0.546 16.363,1.638C17.454,2.729 18,4.058 18,5.625C18,6.375 17.858,7.092 17.575,7.775C17.292,8.458 16.883,9.067 16.35,9.6L9.6,16.35C9.067,16.883 8.458,17.292 7.775,17.575C7.092,17.858 6.375,18 5.625,18ZM12.275,10.85L14.95,8.2C15.283,7.867 15.542,7.475 15.725,7.025C15.908,6.575 16,6.108 16,5.625C16,4.625 15.646,3.771 14.938,3.063C14.229,2.354 13.375,2 12.375,2C11.892,2 11.425,2.092 10.975,2.275C10.525,2.458 10.133,2.717 9.8,3.05L7.15,5.725L12.275,10.85ZM5.625,16C6.108,16 6.575,15.908 7.025,15.725C7.475,15.542 7.867,15.283 8.2,14.95L10.85,12.275L5.725,7.15L3.05,9.8C2.717,10.133 2.458,10.525 2.275,10.975C2.092,11.425 2,11.892 2,12.375C2,13.375 2.354,14.229 3.063,14.938C3.771,15.646 4.625,16 5.625,16Z" style="fill:white;fill-rule:nonzero;"/>
    </g>
</svg>
