<?xml version="1.0" encoding="UTF-8" standalone="no"?>
<!DOCTYPE svg PUBLIC "-//W3C//DTD SVG 1.1//EN" "http://www.w3.org/Graphics/SVG/1.1/DTD/svg11.dtd">
<svg width="100%" height="100%" viewBox="0 0 32 32" version="1.1" xmlns="http://www.w3.org/2000/svg" xmlns:xlink="http://www.w3.org/1999/xlink" xml:space="preserve" xmlns:serif="http://www.serif.com/" style="fill-rule:evenodd;clip-rule:evenodd;stroke-linejoin:round;stroke-miterlimit:2;">
    <g transform="matrix(20.5915,0,0,20.5915,-249.988,-199.558)">
        <circle cx="12.917" cy="10.468" r="0.777" style="fill:rgb(19,78,124);"/>
    </g>
    <g transform="matrix(1,0,0,1,7,7.01559)">
        <path d="M13.725,10.342C13.92,10.342 14.081,10.278 14.209,10.15C14.336,10.023 14.4,9.862 14.4,9.667C14.4,9.472 14.336,9.31 14.209,9.183C14.081,9.055 13.92,8.992 13.725,8.992L11.475,8.992C11.28,8.992 11.119,9.055 10.992,9.183C10.864,9.31 10.8,9.472 10.8,9.667C10.8,9.862 10.864,10.023 10.992,10.15C11.119,10.278 11.28,10.342 11.475,10.342L13.725,10.342ZM13.725,13.042C13.92,13.042 14.081,12.978 14.209,12.851C14.336,12.723 14.4,12.562 14.4,12.367C14.4,12.172 14.336,12.01 14.209,11.883C14.081,11.755 13.92,11.692 13.725,11.692L11.475,11.692C11.28,11.692 11.119,11.755 10.992,11.883C10.864,12.01 10.8,12.172 10.8,12.367C10.8,12.562 10.864,12.723 10.992,12.851C11.119,12.978 11.28,13.042 11.475,13.042L13.725,13.042ZM11.7,4.492L16.2,4.492C16.695,4.492 17.119,4.668 17.472,5.02C17.824,5.373 18,5.797 18,6.292L18,16.192C18,16.687 17.824,17.111 17.472,17.463C17.119,17.816 16.695,17.992 16.2,17.992L1.8,17.992C1.305,17.992 0.881,17.816 0.529,17.463C0.176,17.111 0,16.687 0,16.192L0,6.292C0,5.797 0.176,5.373 0.529,5.02C0.881,4.668 1.305,4.492 1.8,4.492L6.3,4.492L6.3,1.792C6.3,1.297 6.476,0.873 6.829,0.52C7.181,0.168 7.605,-0.008 8.1,-0.008L9.9,-0.008C10.395,-0.008 10.819,0.168 11.172,0.52C11.524,0.873 11.7,1.297 11.7,1.792L11.7,4.492ZM8.1,6.292L9.9,6.292L9.9,1.792L8.1,1.792L8.1,6.292ZM6.3,11.692C6.675,11.692 6.994,11.56 7.256,11.298C7.519,11.035 7.65,10.717 7.65,10.342C7.65,9.967 7.519,9.648 7.256,9.386C6.994,9.123 6.675,8.992 6.3,8.992C5.925,8.992 5.606,9.123 5.344,9.386C5.081,9.648 4.95,9.967 4.95,10.342C4.95,10.717 5.081,11.035 5.344,11.298C5.606,11.56 5.925,11.692 6.3,11.692ZM3.6,14.392L9,14.392L9,13.987C9,13.732 8.929,13.495 8.786,13.278C8.644,13.06 8.445,12.892 8.19,12.772C7.89,12.637 7.586,12.536 7.279,12.468C6.971,12.401 6.645,12.367 6.3,12.367C5.955,12.367 5.629,12.401 5.322,12.468C5.014,12.536 4.71,12.637 4.41,12.772C4.155,12.892 3.956,13.06 3.814,13.278C3.671,13.495 3.6,13.732 3.6,13.987L3.6,14.392ZM6.3,6.292L1.8,6.292L1.8,16.192L16.2,16.192L16.2,6.292L11.7,6.292C11.7,6.787 11.524,7.21 11.172,7.563C10.819,7.915 10.395,8.092 9.9,8.092L8.1,8.092C7.605,8.092 7.181,7.915 6.829,7.563C6.476,7.21 6.3,6.787 6.3,6.292Z" style="fill:white;fill-rule:nonzero;"/>
    </g>
</svg>
