<svg width="326" height="75" viewBox="0 0 326 75" fill="none" xmlns="http://www.w3.org/2000/svg">
<path d="M69.2913 21.5768H49.5199V10.563C49.5199 4.73601 44.7795 0 38.9552 0H23.3496C22.3571 0 21.5605 0.796958 21.5605 1.7899V21.5768H10.5583C4.73401 21.5768 0 26.3194 0 32.1398V47.759C0 48.7454 0.803124 49.5489 1.78908 49.5489H21.5605V60.5562C21.5605 66.3832 26.2945 71.1192 32.1123 71.1192H47.7308C48.7168 71.1192 49.5199 70.3157 49.5199 69.3293V53.1027H45.9483V67.5394H32.1188C28.2729 67.5394 25.1386 64.4103 25.1386 60.5496V47.759C25.1386 47.2625 24.9363 46.8183 24.6164 46.4917C24.2899 46.1651 23.8458 45.9691 23.3561 45.9691H3.5847V32.1398C3.5847 28.2857 6.71899 25.1501 10.5714 25.1501H23.3561C24.342 25.1501 25.1452 24.3466 25.1452 23.3602V3.57326H38.9683C42.8207 3.57326 45.9548 6.70882 45.9548 10.563V23.3602C45.9548 24.3466 46.7514 25.1501 47.7439 25.1501H67.5153V38.9793C67.5153 42.827 64.3877 45.9691 60.5287 45.9691H33.8556C33.7511 45.9691 33.6467 45.9625 33.5487 45.956C33.503 45.956 33.4574 45.956 33.4182 45.956C31.159 45.7208 29.3828 43.8069 29.3828 41.4813C29.3828 39.0055 31.4071 36.9869 33.8817 36.9869C34.2539 36.9869 34.6195 37.0261 34.9787 37.1175C35.5859 37.2743 36.2259 37.0914 36.6699 36.6537C37.1204 36.203 37.2967 35.5629 37.14 34.9554C37.0486 34.5961 37.0029 34.2302 37.0029 33.8578H37.0094C37.0094 31.382 39.027 29.3635 41.5016 29.3635C43.9763 29.3635 45.994 31.382 45.994 33.8578H46.0006C46.0006 34.2302 45.9547 34.5961 45.8633 34.9554C45.7066 35.5629 45.8896 36.203 46.3336 36.6537C46.7776 37.0979 47.4174 37.2743 48.0246 37.1175C48.3837 37.0261 48.7493 36.9869 49.1215 36.9869C51.5962 36.9869 53.6205 39.0055 53.6205 41.4813C53.6205 41.808 53.5748 42.1215 53.5095 42.4285H57.1333C57.1724 42.115 57.1986 41.8014 57.1986 41.4813C57.1986 37.1764 53.8098 33.6423 49.5591 33.4267C49.5591 33.3157 49.533 33.2111 49.5264 33.1001C49.5264 33.0544 49.5199 33.0021 49.5134 32.9564C49.4872 32.7343 49.4547 32.5187 49.4155 32.3032C49.409 32.2574 49.3959 32.2117 49.3893 32.166C49.3436 31.9504 49.2849 31.7349 49.2261 31.5258C49.213 31.4866 49.2 31.4408 49.1869 31.4016C49.1216 31.186 49.0432 30.9835 48.9583 30.7745C48.9452 30.7353 48.9323 30.7027 48.9127 30.67C48.8213 30.461 48.7234 30.2585 48.6189 30.0625C48.6058 30.0364 48.5862 30.0037 48.5732 29.9775C48.4622 29.775 48.3446 29.5791 48.214 29.3897C48.2009 29.3701 48.1878 29.3439 48.1682 29.3243C48.0377 29.1283 47.8941 28.939 47.7439 28.7561C47.7308 28.743 47.7177 28.7233 47.7047 28.7103C47.548 28.5274 47.3847 28.3444 47.215 28.1746C47.2019 28.168 47.1953 28.1549 47.1823 28.1419C47.006 27.9655 46.8233 27.8022 46.6339 27.6454C46.6274 27.6389 46.6143 27.6325 46.6078 27.6259C46.4119 27.4692 46.216 27.3188 46.0071 27.1751C46.0071 27.1751 45.994 27.1685 45.9875 27.162C45.7785 27.0183 45.5631 26.8877 45.3411 26.7701C45.3411 26.7701 45.328 26.7701 45.328 26.7636C45.106 26.6395 44.8709 26.5284 44.6358 26.4304C44.6358 26.4304 44.6293 26.4304 44.6228 26.4304C44.3877 26.3325 44.1397 26.2411 43.8915 26.1627C43.8915 26.1627 43.885 26.1627 43.8785 26.1627C43.6303 26.0843 43.3756 26.0189 43.1144 25.9667C43.1144 25.9667 43.1144 25.9667 43.1079 25.9667C42.5855 25.8621 42.0436 25.8034 41.4951 25.8034H41.4886C40.9336 25.8034 40.3982 25.8621 39.8758 25.9667C39.8758 25.9667 39.8758 25.9667 39.8693 25.9667C39.6081 26.0189 39.3535 26.0843 39.1054 26.1627C39.1054 26.1627 39.0988 26.1627 39.0923 26.1627C38.8442 26.2411 38.6025 26.3325 38.3609 26.4304C38.3609 26.4304 38.3544 26.4304 38.3478 26.4304C38.1128 26.5284 37.8778 26.6395 37.6558 26.7636C37.6558 26.7636 37.6428 26.7636 37.6428 26.7701C37.4207 26.8943 37.2053 27.0248 36.9963 27.162C36.9963 27.162 36.9833 27.1685 36.9767 27.1751C36.7678 27.3123 36.5654 27.4692 36.3761 27.6259C36.3695 27.6259 36.363 27.6389 36.3565 27.6454C36.1671 27.8022 35.9842 27.972 35.8079 28.1419C35.7949 28.1484 35.7883 28.1615 35.7752 28.1746C35.6055 28.3444 35.4422 28.5274 35.2855 28.7103C35.2725 28.7233 35.2594 28.743 35.2463 28.7561C35.0961 28.939 34.9525 29.1283 34.822 29.3243C34.8089 29.3439 34.7958 29.3701 34.7762 29.3897C34.6456 29.5791 34.5282 29.775 34.4172 29.9775C34.4042 30.0037 34.3845 30.0364 34.3715 30.0625C34.267 30.2585 34.1691 30.461 34.0777 30.67C34.0646 30.7027 34.0515 30.7353 34.0319 30.7745C33.947 30.977 33.8686 31.186 33.8033 31.4016C33.7903 31.4408 33.7773 31.4801 33.7643 31.5258C33.699 31.7349 33.6467 31.9504 33.601 32.166C33.588 32.2117 33.5814 32.2574 33.5749 32.3032C33.5357 32.5187 33.4964 32.7408 33.4768 32.9564C33.4768 33.0021 33.4703 33.0544 33.4638 33.1001C33.4507 33.2111 33.4378 33.3157 33.4312 33.4267C29.1805 33.6488 25.7916 37.183 25.7916 41.4813C25.7916 42.5265 25.9941 43.526 26.3597 44.4406H26.314C26.5817 45.1134 26.9278 45.7405 27.3522 46.3088C28.8214 48.2751 31.1719 49.5554 33.8164 49.5554H33.836C33.836 49.5554 33.8556 49.5554 33.8687 49.5554H60.5157C66.34 49.5554 71.0738 44.8194 71.0738 38.9924V23.3733C71.0738 22.3869 70.2772 21.5834 69.2848 21.5834L69.2913 21.5768Z" fill="url(#paint0_linear_419_97422)"/>
<path d="M106.607 21.413V25.7505H84.4391V33.707H102.265V38.0447H84.4391V50.3387H80.1035V21.413H106.607Z" fill="#FFFCF8"/>
<path d="M127.332 27.037C130.225 27.037 132.549 29.3691 132.549 32.2565V45.1124C132.549 48.0063 130.218 50.3384 127.332 50.3384H114.084C111.191 50.3384 108.867 48.0063 108.867 45.1124V32.2565C108.867 29.3626 111.198 27.037 114.084 27.037H127.332ZM114.077 31.3747C113.594 31.3747 113.196 31.7796 113.196 32.2565V45.1124C113.196 45.5958 113.594 45.9943 114.077 45.9943H127.326C127.809 45.9943 128.207 45.5958 128.207 45.1124V32.2565C128.207 31.7731 127.809 31.3747 127.326 31.3747H114.077Z" fill="#FFFCF8"/>
<path d="M154.115 27.037V31.3747H141.102C140.619 31.3747 140.22 31.7796 140.22 32.2565V50.3384H135.885V32.2565C135.885 29.3626 138.216 27.037 141.102 27.037H154.115Z" fill="#FFFCF8"/>
<path d="M180.298 21.4523C183.19 21.4523 185.515 23.8236 185.515 26.6783V34.7918C185.515 37.6465 183.184 40.0178 180.298 40.0178H161.826C161.506 40.0178 161.225 39.9785 160.944 39.9393V50.3456H156.609V21.4589H180.298V21.4523ZM181.179 26.6783C181.179 26.1949 180.781 25.7966 180.298 25.7966H161.826C161.343 25.7966 160.944 26.1949 160.944 26.6783V34.7918C160.944 35.2752 161.343 35.6736 161.826 35.6736H180.298C180.781 35.6736 181.179 35.2752 181.179 34.7918V26.6783Z" fill="#FFFCF8"/>
<path d="M211.978 32.2634V50.3453H207.643V32.2634C207.643 31.78 207.245 31.3816 206.761 31.3816H193.513C193.03 31.3816 192.632 31.7865 192.632 32.2634V50.3453H188.296V19.414H192.632V27.0504H206.768C209.621 27.0504 211.985 29.3825 211.985 32.2699L211.978 32.2634Z" fill="#FFFCF8"/>
<path d="M238.725 32.2632V50.3451H220.253C217.361 50.3451 215.036 48.013 215.036 45.1191V36.5224H234.39V32.2632C234.39 31.7798 233.985 31.3814 233.508 31.3814H215.036V27.0437H233.508C236.401 27.0437 238.725 29.3758 238.725 32.2632ZM234.383 40.86H219.365V45.1191C219.365 45.6025 219.763 46.001 220.247 46.001H234.383V40.86Z" fill="#FFFCF8"/>
<path d="M260.325 27.037V31.3747H247.318C246.835 31.3747 246.436 31.7796 246.436 32.2565V50.3384H242.101V32.2565C242.101 29.3626 244.432 27.037 247.318 27.037H260.325Z" fill="#FFFCF8"/>
<path d="M297.714 32.2632V50.3451H293.417V32.2632C293.417 31.7798 293.019 31.3814 292.497 31.3814H283.303C282.82 31.3814 282.422 31.7863 282.422 32.2632V50.3451H278.086V32.2632C278.086 31.7798 277.681 31.3814 277.204 31.3814H267.972C267.489 31.3814 267.09 31.7863 267.09 32.2632V50.3451H262.755V27.0437H292.51C295.402 27.0437 297.727 29.3758 297.727 32.2632H297.714Z" fill="#FFFCF8"/>
<path d="M325.222 32.2632V50.3451H306.75C303.858 50.3451 301.533 48.013 301.533 45.1191V36.5224H320.887V32.2632C320.887 31.7798 320.482 31.3814 320.005 31.3814H301.533V27.0437H320.005C322.898 27.0437 325.222 29.3758 325.222 32.2632ZM320.88 40.86H305.862V45.1191C305.862 45.6025 306.261 46.001 306.744 46.001H320.88V40.86Z" fill="#FFFCF8"/>
<path d="M85.4834 71.6027C84.6868 71.6027 83.9555 71.4591 83.2829 71.1782C82.6104 70.8973 82.0293 70.4922 81.5265 69.9761C81.0303 69.4601 80.6385 68.8525 80.3642 68.147C80.09 67.4415 79.9529 66.6708 79.9529 65.8346C79.9529 64.9985 80.09 64.2276 80.3642 63.5221C80.6385 62.8166 81.0237 62.209 81.5265 61.6864C82.0228 61.1638 82.6104 60.7653 83.2829 60.4779C83.9555 60.197 84.6868 60.0533 85.4834 60.0533C86.28 60.0533 87.0243 60.197 87.6969 60.4779C88.3694 60.7653 88.9506 61.1638 89.4534 61.6864C89.9561 62.209 90.3414 62.8166 90.6156 63.5221C90.8899 64.2276 91.027 64.9985 91.027 65.8346C91.027 66.6708 90.8899 67.4286 90.6156 68.1341C90.3414 68.8396 89.9561 69.447 89.4534 69.9696C88.9506 70.4922 88.3694 70.8907 87.6969 71.1782C87.0243 71.4656 86.2865 71.6027 85.4834 71.6027ZM85.4834 70.3616C86.0971 70.3616 86.6587 70.2506 87.1811 70.0284C87.7035 69.8063 88.1474 69.4928 88.5261 69.0878C88.9049 68.6763 89.1921 68.1994 89.4011 67.6441C89.61 67.0889 89.7146 66.4879 89.7146 65.8281C89.7146 65.1683 89.61 64.5542 89.4011 63.999C89.1921 63.4437 88.8983 62.9669 88.5261 62.5553C88.1474 62.1503 87.7035 61.8302 87.1811 61.6016C86.6587 61.3795 86.0971 61.2619 85.4834 61.2619C84.8696 61.2619 84.3081 61.373 83.7857 61.6016C83.2633 61.8302 82.8194 62.1438 82.4407 62.5553C82.062 62.9669 81.7746 63.4437 81.5722 63.999C81.3698 64.5542 81.2653 65.1618 81.2653 65.8281C81.2653 66.4944 81.3698 67.0889 81.5722 67.6441C81.7746 68.1994 82.0685 68.6763 82.4407 69.0878C82.8194 69.4928 83.2633 69.8063 83.7857 70.0284C84.3081 70.2506 84.8696 70.3616 85.4834 70.3616Z" fill="white"/>
<path d="M92.986 74.9871V63.0326H94.1939L94.2265 65.0772L93.998 65.1099C94.0959 64.7049 94.3049 64.3325 94.6248 63.9929C94.9448 63.6532 95.3366 63.3853 95.8002 63.1828C96.2637 62.9803 96.7535 62.8758 97.2628 62.8758C98.0137 62.8758 98.6862 63.0652 99.2869 63.4375C99.8811 63.8164 100.358 64.3326 100.71 64.9858C101.063 65.6391 101.239 66.3968 101.239 67.2395C101.239 68.0822 101.069 68.8268 100.723 69.4801C100.377 70.1333 99.9072 70.656 99.3065 71.0349C98.7058 71.4203 98.0267 71.6097 97.2758 71.6097C96.7469 71.6097 96.2507 71.5052 95.7805 71.2896C95.3104 71.074 94.9056 70.7931 94.5726 70.4469C94.2396 70.1007 94.0176 69.7218 93.9131 69.3102H94.2005V75H92.9729L92.986 74.9871ZM97.093 70.4403C97.6611 70.4403 98.1639 70.3032 98.6079 70.0223C99.0454 69.7414 99.3979 69.3626 99.6526 68.8791C99.9072 68.3957 100.038 67.847 100.038 67.2329C100.038 66.6189 99.9072 66.0571 99.6526 65.5737C99.3914 65.0903 99.0454 64.7114 98.6079 64.4305C98.1704 64.1496 97.6611 64.0125 97.093 64.0125C96.5249 64.0125 96.0156 64.1496 95.5716 64.4239C95.1276 64.6983 94.775 65.0772 94.5139 65.5606C94.2592 66.044 94.1286 66.5993 94.1286 67.2199C94.1286 67.8405 94.2592 68.3957 94.5139 68.8791C94.775 69.3626 95.1211 69.7414 95.5716 70.0223C96.0156 70.3032 96.5249 70.4403 97.093 70.4403Z" fill="white"/>
<path d="M106.712 71.603C105.876 71.603 105.132 71.4202 104.479 71.0544C103.832 70.6885 103.323 70.1789 102.957 69.5257C102.591 68.8724 102.409 68.1147 102.409 67.272C102.409 66.6188 102.513 66.0243 102.716 65.4887C102.918 64.9595 103.205 64.4956 103.578 64.0972C103.95 63.6987 104.387 63.3917 104.903 63.1696C105.419 62.9475 105.974 62.8364 106.581 62.8364C107.149 62.8364 107.671 62.9409 108.135 63.1434C108.605 63.3459 109.003 63.6334 109.343 63.9862C109.683 64.3454 109.937 64.77 110.107 65.2665C110.277 65.763 110.355 66.3052 110.336 66.8931L110.316 67.4549H103.31L103.133 66.4424H109.395L109.108 66.7167V66.3314C109.088 65.946 108.971 65.5735 108.768 65.2142C108.566 64.8549 108.279 64.561 107.907 64.3389C107.534 64.1103 107.097 63.9992 106.581 63.9992C105.98 63.9992 105.458 64.1234 105.02 64.3651C104.583 64.6068 104.243 64.966 104.008 65.4363C103.773 65.9067 103.656 66.4946 103.656 67.1935C103.656 67.8925 103.786 68.4348 104.041 68.9248C104.302 69.4147 104.668 69.7936 105.145 70.0614C105.621 70.3292 106.202 70.4663 106.875 70.4663C107.273 70.4663 107.665 70.401 108.057 70.2638C108.449 70.1331 108.879 69.8653 109.356 69.4668L109.983 70.3357C109.735 70.584 109.441 70.7995 109.095 70.989C108.749 71.1784 108.377 71.3286 107.965 71.4397C107.554 71.5507 107.136 71.6095 106.712 71.6095V71.603Z" fill="white"/>
<path d="M112.059 71.4393V63.0321H113.267L113.299 65.2727L113.169 64.9657C113.286 64.5868 113.476 64.2405 113.743 63.9204C114.005 63.6003 114.318 63.3391 114.684 63.1431C115.049 62.9471 115.454 62.8557 115.892 62.8557C116.074 62.8557 116.244 62.8688 116.408 62.8949C116.571 62.9211 116.701 62.9537 116.812 62.9994L116.473 64.3517C116.336 64.2864 116.192 64.2407 116.048 64.2145C115.905 64.1884 115.768 64.1753 115.637 64.1753C115.271 64.1753 114.945 64.2406 114.658 64.3713C114.37 64.5019 114.122 64.6782 113.913 64.9134C113.704 65.1486 113.554 65.4098 113.45 65.7103C113.345 66.0108 113.286 66.3309 113.286 66.6771V71.4459H112.065L112.059 71.4393Z" fill="white"/>
<path d="M120.992 71.6027C120.26 71.6027 119.601 71.4133 119.013 71.0279C118.426 70.649 117.955 70.1263 117.616 69.4665C117.27 68.8067 117.1 68.0555 117.1 67.2194C117.1 66.3832 117.276 65.6189 117.629 64.9657C117.982 64.3124 118.458 63.7963 119.052 63.4174C119.647 63.0385 120.319 62.8557 121.057 62.8557C121.494 62.8557 121.906 62.9211 122.278 63.0517C122.657 63.1824 122.99 63.3586 123.284 63.5873C123.577 63.8224 123.825 64.0903 124.028 64.3908C124.224 64.6978 124.361 65.031 124.439 65.3837L124.087 65.2073L124.132 63.0321H125.34V71.4393H124.119V69.3751L124.439 69.166C124.361 69.4861 124.217 69.7998 124.002 70.0938C123.786 70.3877 123.525 70.649 123.218 70.8711C122.911 71.0997 122.572 71.2761 122.187 71.4003C121.808 71.5309 121.403 71.5961 120.985 71.5961L120.992 71.6027ZM121.266 70.4398C121.827 70.4398 122.324 70.3027 122.761 70.0284C123.199 69.754 123.545 69.3751 123.799 68.8852C124.054 68.3953 124.178 67.84 124.178 67.2194C124.178 66.5988 124.054 66.0435 123.799 65.5601C123.545 65.0767 123.199 64.6978 122.761 64.4169C122.324 64.136 121.821 63.9989 121.266 63.9989C120.711 63.9989 120.195 64.136 119.758 64.4169C119.32 64.6978 118.981 65.0767 118.726 65.5601C118.471 66.0435 118.347 66.5988 118.347 67.2194C118.347 67.84 118.471 68.3822 118.719 68.8721C118.968 69.3621 119.307 69.7475 119.751 70.0218C120.189 70.3027 120.698 70.4398 121.266 70.4398Z" fill="white"/>
<path d="M126.951 64.1884V63.0256H132.188V64.1884H126.951ZM128.852 71.4394V60.8241H130.059V71.4394H128.852Z" fill="white"/>
<path d="M134.585 61.2097C134.284 61.2097 134.056 61.1312 133.899 60.9744C133.742 60.8176 133.664 60.6086 133.664 60.3343C133.664 60.0599 133.742 59.8509 133.906 59.6875C134.069 59.5242 134.291 59.4459 134.585 59.4459C134.879 59.4459 135.101 59.5242 135.264 59.681C135.428 59.8378 135.506 60.0534 135.506 60.3343C135.506 60.5956 135.428 60.8046 135.264 60.9613C135.101 61.1247 134.879 61.2031 134.585 61.2031V61.2097ZM133.99 71.4395V63.0323H135.199V71.4395H133.99Z" fill="white"/>
<path d="M141.557 71.6027C140.721 71.6027 139.977 71.4133 139.324 71.0409C138.678 70.6621 138.162 70.1459 137.796 69.4796C137.431 68.8133 137.241 68.0555 137.241 67.2063C137.241 66.3571 137.424 65.6255 137.796 64.9657C138.168 64.3124 138.678 63.7963 139.324 63.4174C139.971 63.0385 140.715 62.8557 141.557 62.8557C142.4 62.8557 143.124 63.0451 143.771 63.4174C144.417 63.7963 144.933 64.3124 145.299 64.9657C145.671 65.6189 145.854 66.3701 145.854 67.2063C145.854 68.0425 145.671 68.8133 145.299 69.4796C144.927 70.1459 144.417 70.6686 143.771 71.0409C143.124 71.4133 142.38 71.6027 141.557 71.6027ZM141.557 70.4595C142.145 70.4595 142.674 70.3158 143.137 70.0349C143.601 69.754 143.96 69.3621 144.215 68.8721C144.476 68.3822 144.6 67.8269 144.6 67.2063C144.6 66.5857 144.469 66.0304 144.215 65.547C143.954 65.0636 143.594 64.6847 143.137 64.4104C142.674 64.136 142.151 63.9989 141.557 63.9989C140.963 63.9989 140.441 64.136 139.971 64.4104C139.5 64.6847 139.135 65.0636 138.874 65.5536C138.612 66.0435 138.482 66.5922 138.495 67.2063C138.482 67.8269 138.612 68.3822 138.874 68.8721C139.135 69.3621 139.5 69.7475 139.971 70.0349C140.434 70.3223 140.963 70.4595 141.557 70.4595Z" fill="white"/>
<path d="M147.612 71.4393V63.0321H148.807L148.852 64.7893L148.657 64.8678C148.761 64.502 148.97 64.1688 149.283 63.8683C149.597 63.5678 149.969 63.326 150.4 63.1366C150.837 62.9471 151.281 62.8557 151.745 62.8557C152.365 62.8557 152.888 62.9799 153.306 63.2281C153.723 63.4763 154.043 63.8552 154.252 64.3713C154.468 64.8874 154.572 65.5406 154.572 66.3376V71.4459H153.351V66.4028C153.351 65.8476 153.279 65.3838 153.136 65.0245C152.992 64.6653 152.77 64.3973 152.47 64.2274C152.169 64.0576 151.797 63.9728 151.36 63.9858C150.994 63.9858 150.655 64.0512 150.348 64.1753C150.034 64.2994 149.767 64.4693 149.545 64.6848C149.316 64.9004 149.14 65.1486 149.016 65.4229C148.885 65.7038 148.82 66.0044 148.82 66.3245V71.4459H147.612V71.4393Z" fill="white"/>
<path d="M160.175 71.6027C159.444 71.6027 158.784 71.4133 158.197 71.0279C157.609 70.649 157.139 70.1263 156.793 69.4665C156.447 68.8067 156.277 68.0555 156.277 67.2194C156.277 66.3832 156.453 65.6189 156.806 64.9657C157.159 64.3124 157.635 63.7963 158.229 63.4174C158.824 63.0385 159.496 62.8557 160.234 62.8557C160.672 62.8557 161.083 62.9211 161.455 63.0517C161.834 63.1824 162.167 63.3586 162.461 63.5873C162.754 63.8224 163.002 64.0903 163.198 64.3908C163.394 64.6978 163.531 65.031 163.61 65.3837L163.257 65.2073L163.303 63.0321H164.511V71.4393H163.283V69.3751L163.603 69.166C163.531 69.4861 163.381 69.7998 163.166 70.0938C162.95 70.3877 162.689 70.649 162.382 70.8711C162.075 71.0997 161.736 71.2761 161.351 71.4003C160.972 71.5309 160.567 71.5961 160.149 71.5961L160.175 71.6027ZM160.449 70.4398C161.004 70.4398 161.507 70.3027 161.945 70.0284C162.382 69.754 162.728 69.3751 162.983 68.8852C163.238 68.3953 163.362 67.84 163.362 67.2194C163.362 66.5988 163.238 66.0435 162.983 65.5601C162.728 65.0767 162.382 64.6978 161.945 64.4169C161.507 64.136 161.004 63.9989 160.449 63.9989C159.894 63.9989 159.379 64.136 158.941 64.4169C158.504 64.6978 158.164 65.0767 157.909 65.5601C157.655 66.0435 157.531 66.5988 157.531 67.2194C157.531 67.84 157.655 68.3822 157.903 68.8721C158.151 69.3621 158.491 69.7475 158.935 70.0218C159.372 70.3027 159.881 70.4398 160.449 70.4398Z" fill="white"/>
<path d="M166.906 71.4398V59.518H168.114V71.4398H166.906Z" fill="white"/>
<path d="M175.494 71.439V60.1639H182.324V61.3921H176.754V70.224H182.291V71.4455H175.494V71.439ZM176.075 66.2522V65.0307H181.423V66.2522H176.075Z" fill="white"/>
<path d="M183.754 71.4397L187.182 67.0107L187.907 67.8795L185.204 71.4397H183.754ZM190.375 71.4397L187.456 67.6835L187.313 67.5071L183.82 63.0325H185.347L188.214 66.7233L188.377 66.9324L191.89 71.4462H190.375V71.4397ZM188.455 67.3178L187.763 66.462L190.212 63.0325H191.674L188.455 67.3178Z" fill="white"/>
<path d="M196.381 71.6027C195.585 71.6027 194.88 71.4133 194.253 71.0279C193.632 70.649 193.136 70.1263 192.777 69.4665C192.418 68.8067 192.235 68.0555 192.235 67.2194C192.235 66.3832 192.418 65.632 192.777 64.9722C193.136 64.3125 193.626 63.7963 194.253 63.4174C194.873 63.0385 195.591 62.8557 196.394 62.8557C197.113 62.8557 197.766 62.9994 198.36 63.2803C198.947 63.5677 199.424 63.9597 199.777 64.4627L199.065 65.3316C198.863 65.0637 198.614 64.8285 198.334 64.6195C198.046 64.4169 197.746 64.2536 197.413 64.1426C197.086 64.0315 196.76 63.9727 196.44 63.9727C195.872 63.9727 195.363 64.1164 194.912 64.3973C194.462 64.6847 194.103 65.0636 193.841 65.5536C193.58 66.037 193.45 66.5922 193.45 67.2128C193.45 67.8334 193.58 68.3887 193.841 68.8787C194.103 69.3686 194.462 69.754 194.912 70.0284C195.363 70.3093 195.865 70.4464 196.427 70.4464C196.747 70.4464 197.067 70.3941 197.374 70.2962C197.687 70.1916 197.981 70.048 198.262 69.852C198.543 69.656 198.797 69.4142 199.032 69.1268L199.744 69.9957C199.378 70.4791 198.889 70.8645 198.281 71.1585C197.674 71.4524 197.034 71.5961 196.381 71.5961V71.6027Z" fill="white"/>
<path d="M205.013 71.603C204.177 71.603 203.432 71.4202 202.78 71.0544C202.133 70.6885 201.624 70.1789 201.258 69.5257C200.893 68.8724 200.71 68.1147 200.71 67.272C200.71 66.6188 200.814 66.0243 201.017 65.4887C201.219 64.9595 201.506 64.4956 201.878 64.0972C202.251 63.6987 202.688 63.3917 203.204 63.1696C203.72 62.9475 204.275 62.8364 204.876 62.8364C205.444 62.8364 205.966 62.9409 206.43 63.1434C206.893 63.3459 207.298 63.6334 207.638 63.9862C207.977 64.3454 208.232 64.77 208.401 65.2665C208.571 65.763 208.65 66.3052 208.63 66.8931L208.617 67.4549H201.611L201.434 66.4424H207.696L207.409 66.7167V66.3314C207.389 65.946 207.278 65.5735 207.069 65.2142C206.867 64.8549 206.58 64.561 206.208 64.3389C205.835 64.1103 205.398 63.9992 204.882 63.9992C204.281 63.9992 203.759 64.1234 203.322 64.3651C202.884 64.6068 202.544 64.966 202.309 65.4363C202.074 65.9067 201.957 66.4946 201.957 67.1935C201.957 67.8925 202.087 68.4348 202.342 68.9248C202.603 69.4147 202.969 69.7936 203.446 70.0614C203.922 70.3292 204.503 70.4663 205.176 70.4663C205.574 70.4663 205.966 70.401 206.358 70.2638C206.749 70.1331 207.18 69.8653 207.657 69.4668L208.284 70.3357C208.036 70.584 207.742 70.7995 207.396 70.989C207.05 71.1784 206.678 71.3286 206.266 71.4397C205.855 71.5507 205.437 71.6095 205.013 71.6095V71.603Z" fill="white"/>
<path d="M210.387 71.4398V59.518H211.595V71.4398H210.387Z" fill="white"/>
<path d="M214.011 71.4398V59.518H215.219V71.4398H214.011Z" fill="white"/>
<path d="M221.148 71.603C220.312 71.603 219.568 71.4202 218.915 71.0544C218.268 70.6885 217.759 70.1789 217.393 69.5257C217.028 68.8724 216.845 68.1147 216.845 67.272C216.845 66.6188 216.949 66.0243 217.152 65.4887C217.354 64.9595 217.642 64.4956 218.014 64.0972C218.386 63.6987 218.823 63.3917 219.339 63.1696C219.855 62.9475 220.41 62.8364 221.011 62.8364C221.579 62.8364 222.101 62.9409 222.565 63.1434C223.028 63.3459 223.433 63.6334 223.773 63.9862C224.112 64.3454 224.367 64.77 224.537 65.2665C224.707 65.763 224.785 66.3052 224.765 66.8931L224.752 67.4549H217.746L217.57 66.4424H223.832L223.538 66.7167V66.3314C223.518 65.946 223.407 65.5735 223.198 65.2142C222.996 64.8549 222.708 64.561 222.336 64.3389C221.964 64.1103 221.527 63.9992 221.011 63.9992C220.41 63.9992 219.888 64.1234 219.45 64.3651C219.013 64.6068 218.673 64.966 218.438 65.4363C218.203 65.9067 218.086 66.4946 218.086 67.1935C218.086 67.8925 218.216 68.4348 218.471 68.9248C218.732 69.4147 219.098 69.7936 219.574 70.0614C220.051 70.3292 220.632 70.4663 221.305 70.4663C221.703 70.4663 222.095 70.401 222.486 70.2638C222.878 70.1331 223.309 69.8653 223.786 69.4668L224.413 70.3357C224.165 70.584 223.871 70.7995 223.525 70.989C223.179 71.1784 222.806 71.3286 222.395 71.4397C221.984 71.5507 221.566 71.6095 221.141 71.6095L221.148 71.603Z" fill="white"/>
<path d="M226.495 71.4393V63.0321H227.69L227.736 64.7893L227.54 64.8678C227.644 64.502 227.853 64.1688 228.167 63.8683C228.48 63.5678 228.852 63.326 229.283 63.1366C229.721 62.9471 230.165 62.8557 230.628 62.8557C231.249 62.8557 231.771 62.9799 232.189 63.2281C232.607 63.4763 232.927 63.8552 233.136 64.3713C233.351 64.8874 233.455 65.5406 233.455 66.3376V71.4459H232.228V66.4028C232.228 65.8476 232.156 65.3838 232.012 65.0245C231.869 64.6653 231.647 64.3973 231.346 64.2274C231.046 64.0576 230.674 63.9728 230.236 63.9858C229.871 63.9858 229.531 64.0512 229.224 64.1753C228.911 64.2994 228.643 64.4693 228.421 64.6848C228.193 64.9004 228.016 65.1486 227.892 65.4229C227.762 65.7038 227.696 66.0044 227.696 66.3245V71.4459H226.489L226.495 71.4393Z" fill="white"/>
<path d="M239.313 71.6027C238.517 71.6027 237.812 71.4133 237.185 71.0279C236.565 70.649 236.068 70.1263 235.709 69.4665C235.35 68.8067 235.167 68.0555 235.167 67.2194C235.167 66.3832 235.35 65.632 235.709 64.9722C236.068 64.3125 236.558 63.7963 237.185 63.4174C237.805 63.0385 238.523 62.8557 239.327 62.8557C240.045 62.8557 240.698 62.9994 241.292 63.2803C241.88 63.5677 242.356 63.9597 242.709 64.4627L241.997 65.3316C241.795 65.0637 241.547 64.8285 241.266 64.6195C240.978 64.4169 240.678 64.2536 240.345 64.1426C240.019 64.0315 239.692 63.9727 239.372 63.9727C238.804 63.9727 238.295 64.1164 237.844 64.3973C237.394 64.6847 237.035 65.0636 236.773 65.5536C236.512 66.037 236.382 66.5922 236.382 67.2128C236.382 67.8334 236.512 68.3887 236.773 68.8787C237.035 69.3686 237.394 69.754 237.844 70.0284C238.295 70.3093 238.798 70.4464 239.359 70.4464C239.679 70.4464 239.999 70.3941 240.306 70.2962C240.619 70.1916 240.913 70.048 241.194 69.852C241.475 69.656 241.729 69.4142 241.964 69.1268L242.676 69.9957C242.311 70.4791 241.821 70.8645 241.213 71.1585C240.6 71.4459 239.966 71.5961 239.313 71.5961V71.6027Z" fill="white"/>
<path d="M247.945 71.603C247.109 71.603 246.364 71.4202 245.711 71.0544C245.065 70.6885 244.556 70.1789 244.19 69.5257C243.824 68.8724 243.642 68.1147 243.642 67.272C243.642 66.6188 243.746 66.0243 243.948 65.4887C244.151 64.9595 244.438 64.4956 244.81 64.0972C245.183 63.6987 245.62 63.3917 246.136 63.1696C246.652 62.9475 247.207 62.8364 247.807 62.8364C248.376 62.8364 248.898 62.9409 249.361 63.1434C249.825 63.3459 250.23 63.6334 250.569 63.9862C250.909 64.3454 251.164 64.77 251.333 65.2665C251.503 65.763 251.581 66.3052 251.562 66.8931L251.549 67.4549H244.543L244.366 66.4424H250.628L250.334 66.7167V66.3314C250.315 65.946 250.204 65.5735 249.995 65.2142C249.792 64.8549 249.505 64.561 249.133 64.3389C248.761 64.1103 248.323 63.9992 247.807 63.9992C247.207 63.9992 246.684 64.1234 246.247 64.3651C245.809 64.6068 245.47 64.966 245.235 65.4363C245 65.9067 244.882 66.4946 244.882 67.1935C244.882 67.8925 245.013 68.4348 245.267 68.9248C245.529 69.4147 245.894 69.7936 246.371 70.0614C246.848 70.3292 247.429 70.4663 248.101 70.4663C248.5 70.4663 248.891 70.401 249.283 70.2638C249.675 70.1331 250.106 69.8653 250.582 69.4668L251.209 70.3357C250.961 70.584 250.667 70.7995 250.321 70.989C249.975 71.1784 249.603 71.3286 249.192 71.4397C248.78 71.5507 248.362 71.6095 247.938 71.6095L247.945 71.603Z" fill="white"/>
<path d="M261.569 71.6025C261.001 71.6025 260.466 71.5242 259.956 71.3609C259.454 71.1976 258.99 70.9558 258.572 70.6357C258.154 70.3091 257.782 69.9173 257.462 69.4404L258.331 68.4735C258.833 69.192 259.356 69.7016 259.885 69.989C260.414 70.2765 261.014 70.4267 261.68 70.4267C262.163 70.4267 262.601 70.3484 262.999 70.185C263.397 70.0217 263.711 69.7996 263.933 69.5122C264.161 69.2182 264.272 68.8916 264.272 68.5127C264.272 68.2645 264.233 68.0489 264.148 67.8529C264.07 67.6569 263.946 67.4871 263.789 67.3368C263.626 67.1866 263.43 67.056 263.195 66.9319C262.96 66.8143 262.686 66.7098 262.385 66.6118C262.079 66.5138 261.739 66.4159 261.36 66.3244C260.812 66.1937 260.335 66.0434 259.917 65.867C259.506 65.6906 259.153 65.475 258.873 65.2137C258.585 64.9524 258.376 64.6586 258.226 64.3189C258.082 63.9792 258.011 63.5806 258.011 63.1168C258.011 62.653 258.102 62.2677 258.291 61.8888C258.481 61.5099 258.742 61.1898 259.075 60.9155C259.408 60.6411 259.8 60.4321 260.25 60.2753C260.701 60.1251 261.184 60.0466 261.7 60.0466C262.281 60.0466 262.797 60.1251 263.254 60.2818C263.711 60.4386 264.116 60.6671 264.468 60.9676C264.821 61.2681 265.128 61.6275 265.389 62.0456L264.501 62.9143C264.272 62.5615 264.018 62.2546 263.737 61.9933C263.45 61.732 263.143 61.5361 262.803 61.4054C262.464 61.2748 262.092 61.2029 261.687 61.2029C261.217 61.2029 260.799 61.2812 260.44 61.4445C260.081 61.6078 259.8 61.8299 259.597 62.1108C259.395 62.3982 259.29 62.7183 259.29 63.0841C259.29 63.352 259.336 63.5937 259.434 63.8028C259.532 64.0118 259.682 64.1948 259.891 64.3516C260.1 64.5084 260.374 64.6455 260.714 64.7696C261.053 64.8937 261.458 65.0113 261.928 65.1158C262.483 65.2465 262.986 65.4032 263.437 65.5861C263.881 65.7691 264.266 65.9846 264.579 66.2394C264.893 66.4942 265.134 66.7882 265.304 67.1213C265.474 67.4545 265.552 67.8334 265.552 68.2645C265.552 68.9308 265.382 69.5122 265.056 70.0152C264.723 70.5182 264.259 70.9036 263.665 71.1845C263.071 71.4654 262.372 71.6025 261.582 71.6025H261.569Z" fill="white"/>
<path d="M271.315 71.6027C270.479 71.6027 269.735 71.4133 269.082 71.0409C268.429 70.6686 267.919 70.1459 267.554 69.4796C267.188 68.8133 266.999 68.0555 266.999 67.2063C266.999 66.3571 267.182 65.6255 267.554 64.9657C267.926 64.3124 268.435 63.7963 269.082 63.4174C269.728 63.0385 270.472 62.8557 271.315 62.8557C272.157 62.8557 272.882 63.0451 273.528 63.4174C274.175 63.7963 274.691 64.3124 275.056 64.9657C275.428 65.6189 275.611 66.3701 275.611 67.2063C275.611 68.0425 275.428 68.8133 275.056 69.4796C274.684 70.1459 274.175 70.6686 273.528 71.0409C272.882 71.4198 272.137 71.6027 271.315 71.6027ZM271.315 70.4595C271.902 70.4595 272.431 70.3158 272.895 70.0349C273.358 69.754 273.718 69.3621 273.972 68.8721C274.233 68.3822 274.357 67.8269 274.357 67.2063C274.357 66.5857 274.227 66.0304 273.972 65.547C273.718 65.0636 273.358 64.6847 272.895 64.4104C272.431 64.136 271.909 63.9989 271.315 63.9989C270.721 63.9989 270.198 64.136 269.728 64.4104C269.258 64.6847 268.899 65.0636 268.631 65.5536C268.37 66.0435 268.239 66.5922 268.252 67.2063C268.239 67.8269 268.37 68.3822 268.631 68.8721C268.892 69.3621 269.258 69.7475 269.728 70.0349C270.198 70.3223 270.727 70.4595 271.315 70.4595Z" fill="white"/>
<path d="M277.399 71.4398V59.518H278.608V71.4398H277.399Z" fill="white"/>
<path d="M283.89 71.6029C283.244 71.6029 282.702 71.4723 282.258 71.211C281.814 70.9497 281.474 70.5643 281.245 70.0548C281.017 69.5518 280.899 68.9246 280.899 68.1733V63.0323H282.127V67.9317C282.127 68.5 282.205 68.9769 282.362 69.3557C282.519 69.7412 282.754 70.0221 283.074 70.2181C283.394 70.414 283.779 70.5055 284.243 70.5055C284.595 70.5055 284.922 70.4401 285.222 70.316C285.522 70.1919 285.784 70.022 286.012 69.8064C286.234 69.5909 286.417 69.3362 286.541 69.0487C286.672 68.7613 286.737 68.4543 286.737 68.1342V63.0258H287.945V71.433H286.75L286.704 69.6627L286.9 69.5648C286.769 69.9437 286.554 70.2833 286.254 70.5903C285.953 70.8973 285.594 71.1391 285.183 71.322C284.771 71.5049 284.34 71.5963 283.903 71.5963L283.89 71.6029Z" fill="white"/>
<path d="M289.545 64.1884V63.0256H294.782V64.1884H289.545ZM291.445 71.4394V60.8241H292.653V71.4394H291.445Z" fill="white"/>
<path d="M297.175 61.2097C296.875 61.2097 296.646 61.1312 296.489 60.9744C296.333 60.8176 296.254 60.6086 296.254 60.3343C296.254 60.0599 296.333 59.8509 296.496 59.6875C296.659 59.5242 296.881 59.4459 297.175 59.4459C297.469 59.4459 297.691 59.5242 297.855 59.681C298.018 59.8378 298.096 60.0534 298.096 60.3343C298.096 60.5956 298.018 60.8046 297.855 60.9613C297.691 61.1247 297.469 61.2031 297.175 61.2031V61.2097ZM296.581 71.4395V63.0323H297.789V71.4395H296.581Z" fill="white"/>
<path d="M304.151 71.6027C303.315 71.6027 302.571 71.4133 301.918 71.0409C301.271 70.6621 300.756 70.1459 300.39 69.4796C300.018 68.8133 299.835 68.0555 299.835 67.2063C299.835 66.3571 300.018 65.6255 300.39 64.9657C300.762 64.3124 301.271 63.7963 301.918 63.4174C302.564 63.0385 303.309 62.8557 304.151 62.8557C304.993 62.8557 305.718 63.0451 306.364 63.4174C307.011 63.7963 307.527 64.3124 307.892 64.9657C308.265 65.6189 308.447 66.3701 308.447 67.2063C308.447 68.0425 308.265 68.8133 307.892 69.4796C307.52 70.1459 307.011 70.6686 306.364 71.0409C305.718 71.4133 304.974 71.6027 304.151 71.6027ZM304.151 70.4595C304.739 70.4595 305.268 70.3158 305.731 70.0349C306.195 69.754 306.554 69.3621 306.809 68.8721C307.07 68.3822 307.194 67.8269 307.194 67.2063C307.194 66.5857 307.063 66.0304 306.809 65.547C306.554 65.0636 306.188 64.6847 305.731 64.4104C305.274 64.136 304.745 63.9989 304.151 63.9989C303.557 63.9989 303.034 64.136 302.564 64.4104C302.094 64.6847 301.735 65.0636 301.467 65.5536C301.206 66.0435 301.076 66.5922 301.089 67.2063C301.076 67.8269 301.206 68.3822 301.467 68.8721C301.729 69.3621 302.094 69.7475 302.564 70.0349C303.034 70.3223 303.563 70.4595 304.151 70.4595Z" fill="white"/>
<path d="M310.202 71.4393V63.0321H311.397L311.442 64.7893L311.246 64.8678C311.351 64.502 311.56 64.1688 311.873 63.8683C312.187 63.5678 312.559 63.326 312.99 63.1366C313.427 62.9471 313.871 62.8557 314.335 62.8557C314.955 62.8557 315.477 62.9799 315.895 63.2281C316.313 63.4763 316.633 63.8552 316.842 64.3713C317.051 64.8874 317.162 65.5406 317.162 66.3376V71.4459H315.935V66.4028C315.935 65.8476 315.863 65.3838 315.719 65.0245C315.575 64.6653 315.353 64.3973 315.053 64.2274C314.753 64.0576 314.38 63.9728 313.943 63.9858C313.577 63.9858 313.238 64.0512 312.931 64.1753C312.618 64.2994 312.35 64.4693 312.128 64.6848C311.899 64.9004 311.723 65.1486 311.599 65.4229C311.468 65.7038 311.403 66.0044 311.403 66.3245V71.4459H310.195L310.202 71.4393Z" fill="white"/>
<path d="M322.236 71.6025C321.517 71.6025 320.871 71.4719 320.303 71.2041C319.735 70.9363 319.284 70.5834 318.951 70.1392L319.806 69.4011C320.12 69.78 320.486 70.0609 320.91 70.2569C321.334 70.4529 321.811 70.5443 322.333 70.5443C322.601 70.5443 322.843 70.5115 323.058 70.4528C323.274 70.394 323.463 70.3091 323.62 70.185C323.783 70.0674 323.907 69.9237 323.992 69.767C324.077 69.6037 324.123 69.4272 324.123 69.2378C324.123 68.885 323.966 68.591 323.652 68.3493C323.515 68.2513 323.313 68.1534 323.058 68.0488C322.804 67.9443 322.49 67.8464 322.125 67.7484C321.524 67.5785 321.021 67.4021 320.629 67.2257C320.231 67.0494 319.918 66.8404 319.696 66.6052C319.532 66.4092 319.415 66.2002 319.336 65.9781C319.258 65.756 319.212 65.5077 319.212 65.2398C319.212 64.8936 319.284 64.5801 319.428 64.2861C319.571 63.9987 319.774 63.744 320.042 63.5219C320.303 63.2998 320.616 63.1364 320.975 63.0189C321.334 62.9078 321.726 62.849 322.144 62.849C322.542 62.849 322.934 62.9013 323.319 63.0123C323.705 63.1234 324.064 63.2736 324.397 63.4826C324.73 63.6851 325.017 63.9269 325.252 64.2078L324.508 65.0113C324.305 64.7957 324.077 64.5997 323.829 64.4298C323.581 64.26 323.319 64.1229 323.045 64.0249C322.771 63.9269 322.49 63.8812 322.203 63.8812C321.948 63.8812 321.707 63.9138 321.485 63.9791C321.263 64.0444 321.08 64.1293 320.923 64.2469C320.766 64.3579 320.649 64.4952 320.57 64.6585C320.492 64.8218 320.446 64.9982 320.446 65.1877C320.446 65.351 320.479 65.4947 320.544 65.6253C320.61 65.756 320.701 65.867 320.819 65.965C320.969 66.0826 321.178 66.1937 321.452 66.2982C321.726 66.4027 322.066 66.5072 322.477 66.6117C322.947 66.7424 323.352 66.8729 323.679 67.0036C324.005 67.1342 324.279 67.2977 324.495 67.4806C324.782 67.6962 324.991 67.9443 325.115 68.2187C325.239 68.4996 325.298 68.8131 325.298 69.1724C325.298 69.6427 325.167 70.0673 324.906 70.4266C324.645 70.7924 324.279 71.0799 323.816 71.2889C323.352 71.498 322.83 71.6025 322.236 71.6025Z" fill="white"/>
<defs>
<linearGradient id="paint0_linear_419_97422" x1="0.00652952" y1="35.5629" x2="71.0804" y2="35.5629" gradientUnits="userSpaceOnUse">
<stop stop-color="#FEC10D"/>
<stop offset="1" stop-color="#FEFFFF"/>
</linearGradient>
</defs>
</svg>
