<svg
    xmlns="http://www.w3.org/2000/svg"
    viewBox="0 0 533 544"
    id="google">
    <path
        id="path"
        d="M 533.5 278.4 C 533.5 259.9 532 241.3 528.8 223.1 L 272.1 223.1 L 272.1 327.9 L 419.1 327.9 C 413 361.7 393.4 391.6 364.7 410.6 L 364.7 478.6 L 452.4 478.6 C 503.9 431.2 533.5 361.2 533.5 278.4 Z"
        fill="#4285f4"
        stroke-width="1"/>
    <path
        id="path_1"
        d="M 272.1 544.3 C 345.5 544.3 407.4 520.2 452.5 478.6 L 364.8 410.6 C 340.4 427.2 308.9 436.6 272.2 436.6 C 201.2 436.6 141 388.7 119.4 324.3 L 28.9 324.3 L 28.9 394.4 C 75.1 486.3 169.2 544.3 272.1 544.3 Z"
        fill="#34a853"
        stroke-width="1"/>
    <path
        id="path_2"
        d="M 119.3 324.3 C 107.9 290.5 107.9 253.9 119.3 220.1 L 119.3 150 L 28.9 150 C -9.7 226.9 -9.7 317.5 28.9 394.4 L 119.3 324.3 Z"
        fill="#fbbc04"
        stroke-width="1"/>
    <path
        id="path_3"
        d="M 272.1 107.7 C 310.9 107.1 348.4 121.7 376.5 148.5 L 454.2 70.8 C 405 24.6 339.7 -0.8 272.1 0 C 169.2 0 75.1 58 28.9 150 L 119.3 220.1 C 140.8 155.6 201.1 107.7 272.1 107.7 Z"
        fill="#ea4335"
        stroke-width="1"/>
</svg>
