<?xml version="1.0" encoding="UTF-8" standalone="no"?>
<!DOCTYPE svg PUBLIC "-//W3C//DTD SVG 1.1//EN" "http://www.w3.org/Graphics/SVG/1.1/DTD/svg11.dtd">
<svg width="100%" height="100%" viewBox="0 0 22 22" version="1.1" xmlns="http://www.w3.org/2000/svg" xmlns:xlink="http://www.w3.org/1999/xlink" xml:space="preserve" xmlns:serif="http://www.serif.com/" style="fill-rule:evenodd;clip-rule:evenodd;stroke-linejoin:round;stroke-miterlimit:2;">
    <g transform="matrix(1.1,0,0,1.1,-24.6124,-6.6)">
        <path d="M23.428,23.714L23.428,13.429C23.428,13.067 23.508,12.725 23.665,12.4C23.821,12.075 24.041,11.81 24.322,11.6L31.033,6.457C31.427,6.151 31.874,6 32.375,6C32.876,6 33.323,6.151 33.717,6.457L40.428,11.6C40.705,11.81 40.924,12.075 41.085,12.4C41.242,12.725 41.322,13.067 41.322,13.429L41.322,23.714C41.322,24.345 41.103,24.88 40.665,25.328C40.226,25.776 39.698,26 39.086,26L34.612,26C34.294,26 34.03,25.89 33.816,25.671C33.601,25.451 33.493,25.182 33.493,24.857L33.493,19.143L31.257,19.143L31.257,24.857C31.257,25.182 31.149,25.451 30.935,25.671C30.72,25.89 30.456,26 30.138,26L25.665,26C25.047,26 24.524,25.776 24.085,25.328C23.647,24.88 23.428,24.341 23.428,23.714ZM25.665,23.714L29.02,23.714L29.02,18C29.02,17.675 29.127,17.406 29.342,17.186C29.557,16.967 29.821,16.857 30.138,16.857L34.612,16.857C34.93,16.857 35.193,16.967 35.408,17.186C35.623,17.406 35.73,17.675 35.73,18L35.73,23.714L39.086,23.714L39.086,13.429L32.375,8.286L25.665,13.429L25.665,23.714Z" style="fill:rgb(33,134,212);fill-rule:nonzero;"/>
    </g>
</svg>
