<?xml version="1.0" encoding="UTF-8" standalone="no"?>
<!DOCTYPE svg PUBLIC "-//W3C//DTD SVG 1.1//EN" "http://www.w3.org/Graphics/SVG/1.1/DTD/svg11.dtd">
<svg width="100%" height="100%" viewBox="0 0 55 55" version="1.1" xmlns="http://www.w3.org/2000/svg" xmlns:xlink="http://www.w3.org/1999/xlink" xml:space="preserve" xmlns:serif="http://www.serif.com/" style="fill-rule:evenodd;clip-rule:evenodd;stroke-linejoin:round;stroke-miterlimit:2;">
    <g transform="matrix(27.5222,0,0,27.5222,-355.489,-690.234)">
        <circle cx="13.916" cy="26.078" r="0.999" style="fill:rgb(241,85,90);"/>
    </g>
    <g transform="matrix(1,0,0,1,13.5028,16.2804)">
        <path d="M2.78,22.333C2.016,22.333 1.357,22.054 0.815,21.501C0.268,20.954 0,20.295 0,19.53L0.084,2.78C0.084,2.016 0.363,1.357 0.916,0.815C1.468,0.274 2.122,0 2.887,0L25.22,0.106C25.984,0.106 26.643,0.385 27.185,0.938C27.726,1.485 28,2.144 27.994,2.914L27.911,19.664C27.911,20.429 27.632,21.088 27.079,21.63C26.526,22.171 25.873,22.445 25.102,22.439L2.769,22.333L2.78,22.333ZM14.003,9.827L25.203,2.903L2.87,2.797L14.003,9.832L14.003,9.827ZM2.859,5.929L2.859,4.919C2.859,4.455 2.864,4.104 2.864,3.875C2.864,3.646 2.864,3.651 2.864,3.908C2.864,3.651 2.864,3.646 2.864,3.892L2.864,4.919C2.859,5.153 2.859,5.354 2.859,5.527L2.859,5.929ZM25.192,5.689L14.729,12.166C14.611,12.233 14.489,12.289 14.36,12.322C14.232,12.356 14.109,12.373 13.992,12.373C13.874,12.373 13.752,12.356 13.623,12.317C13.495,12.283 13.372,12.227 13.26,12.16L2.859,5.583L2.792,19.541L25.125,19.648L25.192,5.689Z" style="fill:white;fill-rule:nonzero;"/>
    </g>
</svg>
