<?xml version="1.0" encoding="UTF-8" standalone="no"?>
<!DOCTYPE svg PUBLIC "-//W3C//DTD SVG 1.1//EN" "http://www.w3.org/Graphics/SVG/1.1/DTD/svg11.dtd">
<svg width="100%" height="100%" viewBox="0 0 32 32" version="1.1" xmlns="http://www.w3.org/2000/svg" xmlns:xlink="http://www.w3.org/1999/xlink" xml:space="preserve" xmlns:serif="http://www.serif.com/" style="fill-rule:evenodd;clip-rule:evenodd;stroke-linejoin:round;stroke-miterlimit:2;">
    <g transform="matrix(20.5915,0,0,20.5915,-249.988,-199.558)">
        <circle cx="12.917" cy="10.468" r="0.777" style="fill:rgb(255,129,10);"/>
    </g>
    <g transform="matrix(1,0,0,1,7.00163,5.7846)">
        <path d="M1.799,3.473L0.9,3.473C0.643,3.473 0.432,3.387 0.261,3.212C0.09,3.041 0,2.825 0,2.573C0,2.321 0.085,2.105 0.261,1.929C0.436,1.754 0.648,1.673 0.9,1.673L2.384,1.673C2.55,1.673 2.708,1.718 2.856,1.808C3.005,1.898 3.117,2.024 3.193,2.19L6.769,9.773L13.066,9.773L16.327,3.923C16.403,3.774 16.507,3.662 16.642,3.585C16.777,3.509 16.925,3.473 17.092,3.473C17.438,3.473 17.694,3.617 17.865,3.909C18.036,4.202 18.041,4.499 17.879,4.796L14.663,10.623C14.496,10.925 14.276,11.154 14.002,11.321C13.723,11.487 13.421,11.568 13.089,11.568L6.387,11.568L5.397,13.368L15.292,13.368C15.549,13.368 15.76,13.454 15.931,13.625C16.102,13.796 16.192,14.012 16.192,14.268C16.192,14.525 16.106,14.736 15.931,14.907C15.76,15.078 15.544,15.168 15.292,15.168L5.397,15.168C4.723,15.168 4.21,14.876 3.859,14.291C3.508,13.706 3.495,13.112 3.823,12.513L5.037,10.308L1.799,3.473ZM5.397,19.673C4.903,19.673 4.48,19.497 4.124,19.142C3.769,18.786 3.598,18.368 3.598,17.873C3.598,17.378 3.774,16.955 4.124,16.599C4.475,16.248 4.903,16.073 5.397,16.073C5.892,16.073 6.315,16.248 6.67,16.599C7.021,16.95 7.196,17.378 7.196,17.873C7.196,18.368 7.021,18.791 6.67,19.142C6.319,19.493 5.892,19.673 5.397,19.673ZM8.996,5.273L7.196,5.273C6.94,5.273 6.729,5.187 6.558,5.012C6.387,4.841 6.297,4.625 6.297,4.373C6.297,4.121 6.382,3.905 6.558,3.729C6.733,3.554 6.945,3.473 7.196,3.473L8.996,3.473L8.996,1.673C8.996,1.416 9.081,1.205 9.256,1.029C9.432,0.854 9.643,0.773 9.895,0.773C10.147,0.773 10.363,0.858 10.534,1.029C10.705,1.2 10.795,1.416 10.795,1.673L10.795,3.473L12.594,3.473C12.85,3.473 13.062,3.558 13.232,3.729C13.403,3.9 13.493,4.116 13.493,4.373C13.493,4.629 13.408,4.841 13.232,5.012C13.062,5.183 12.846,5.273 12.594,5.273L10.795,5.273L10.795,7.073C10.795,7.329 10.709,7.541 10.534,7.712C10.363,7.883 10.147,7.973 9.895,7.973C9.643,7.973 9.427,7.887 9.256,7.712C9.085,7.541 8.996,7.325 8.996,7.073L8.996,5.273ZM14.393,19.673C13.898,19.673 13.475,19.497 13.12,19.142C12.765,18.786 12.594,18.368 12.594,17.873C12.594,17.378 12.769,16.955 13.12,16.599C13.471,16.248 13.898,16.073 14.393,16.073C14.888,16.073 15.31,16.248 15.666,16.599C16.017,16.95 16.192,17.378 16.192,17.873C16.192,18.368 16.017,18.791 15.666,19.142C15.315,19.493 14.888,19.673 14.393,19.673Z" style="fill:white;fill-rule:nonzero;"/>
    </g>
</svg>
