<?xml version="1.0" encoding="UTF-8" standalone="no"?>
<!DOCTYPE svg PUBLIC "-//W3C//DTD SVG 1.1//EN" "http://www.w3.org/Graphics/SVG/1.1/DTD/svg11.dtd">
<svg width="100%" height="100%" viewBox="0 0 38 38" version="1.1" xmlns="http://www.w3.org/2000/svg" xmlns:xlink="http://www.w3.org/1999/xlink" xml:space="preserve" xmlns:serif="http://www.serif.com/" style="fill-rule:evenodd;clip-rule:evenodd;stroke-linejoin:round;stroke-miterlimit:2;">
    <g transform="matrix(1,0,0,1,-0.35376,0)">
        <path d="M18.95,36.722C28.934,36.722 37.027,28.625 37.027,18.637C37.027,8.649 28.934,0.553 18.95,0.553C8.967,0.553 0.874,8.649 0.874,18.637C0.874,28.625 8.967,36.722 18.95,36.722Z" style="fill:white;fill-rule:nonzero;"/>
    </g>
    <g transform="matrix(1,0,0,1,6.43015,9.16328)">
        <path d="M18.387,6.364L22.267,2.456C22.488,2.235 22.749,2.125 23.052,2.125C23.355,2.125 23.616,2.235 23.836,2.456C24.056,2.676 24.167,2.937 24.167,3.24C24.167,3.543 24.056,3.804 23.836,4.024L19.157,8.703C18.937,8.924 18.68,9.034 18.387,9.034C18.093,9.034 17.836,8.924 17.616,8.703L15.277,6.364C15.056,6.144 14.946,5.882 14.946,5.58C14.946,5.277 15.056,5.015 15.277,4.795C15.497,4.575 15.754,4.465 16.047,4.465C16.341,4.465 16.598,4.575 16.818,4.795L18.387,6.364ZM8.974,9.474C7.763,9.474 6.726,9.043 5.864,8.18C5.001,7.318 4.57,6.281 4.57,5.07C4.57,3.859 5.001,2.823 5.864,1.96C6.726,1.098 7.763,0.667 8.974,0.667C10.185,0.667 11.222,1.098 12.084,1.96C12.946,2.823 13.378,3.859 13.378,5.07C13.378,6.281 12.946,7.318 12.084,8.18C11.222,9.043 10.185,9.474 8.974,9.474ZM0.167,16.08L0.167,15.199C0.167,14.575 0.327,14.002 0.648,13.479C0.969,12.956 1.396,12.557 1.928,12.281C3.066,11.713 4.222,11.286 5.396,11.002C6.57,10.717 7.763,10.575 8.974,10.575C10.185,10.575 11.378,10.717 12.552,11.002C13.726,11.286 14.882,11.713 16.02,12.281C16.552,12.557 16.978,12.956 17.299,13.479C17.621,14.002 17.781,14.575 17.781,15.199L17.781,16.08C17.781,16.685 17.566,17.203 17.134,17.635C16.703,18.066 16.185,18.281 15.579,18.281L2.368,18.281C1.763,18.281 1.244,18.066 0.813,17.635C0.382,17.203 0.167,16.685 0.167,16.08ZM2.368,16.08L15.579,16.08L15.579,15.199C15.579,14.997 15.529,14.813 15.428,14.648C15.327,14.483 15.194,14.355 15.029,14.263C14.038,13.768 13.038,13.396 12.029,13.148C11.02,12.901 10.001,12.777 8.974,12.777C7.946,12.777 6.928,12.901 5.919,13.148C4.91,13.396 3.91,13.768 2.919,14.263C2.754,14.355 2.621,14.483 2.52,14.648C2.419,14.813 2.368,14.997 2.368,15.199L2.368,16.08ZM8.974,7.272C9.579,7.272 10.098,7.057 10.529,6.625C10.96,6.194 11.176,5.676 11.176,5.07C11.176,4.465 10.96,3.946 10.529,3.515C10.098,3.084 9.579,2.868 8.974,2.868C8.368,2.868 7.85,3.084 7.419,3.515C6.988,3.946 6.772,4.465 6.772,5.07C6.772,5.676 6.988,6.194 7.419,6.625C7.85,7.057 8.368,7.272 8.974,7.272Z" style="fill:rgb(33,134,212);fill-rule:nonzero;"/>
    </g>
</svg>
