<?xml version="1.0" encoding="UTF-8" standalone="no"?>
<!DOCTYPE svg PUBLIC "-//W3C//DTD SVG 1.1//EN" "http://www.w3.org/Graphics/SVG/1.1/DTD/svg11.dtd">
<svg width="100%" height="100%" viewBox="0 0 32 32" version="1.1" xmlns="http://www.w3.org/2000/svg" xmlns:xlink="http://www.w3.org/1999/xlink" xml:space="preserve" xmlns:serif="http://www.serif.com/" style="fill-rule:evenodd;clip-rule:evenodd;stroke-linejoin:round;stroke-miterlimit:2;">
    <g transform="matrix(20.5915,0,0,20.5915,-249.988,-199.558)">
        <circle cx="12.917" cy="10.468" r="0.777" style="fill:rgb(125,108,157);"/>
    </g>
    <g transform="matrix(1,0,0,1,7,5.3346)">
        <path d="M1.8,18.773C1.305,18.773 0.882,18.597 0.527,18.242C0.171,17.886 0,17.468 0,16.973L0,4.373C0,3.878 0.175,3.455 0.527,3.099C0.877,2.748 1.305,2.573 1.8,2.573L5.58,2.573C5.774,2.033 6.102,1.596 6.557,1.268C7.016,0.939 7.529,0.773 8.095,0.773C8.663,0.773 9.18,0.939 9.634,1.268C10.094,1.596 10.418,2.033 10.611,2.573L14.391,2.573C14.886,2.573 15.309,2.748 15.665,3.099C16.015,3.45 16.191,3.878 16.191,4.373L16.191,9.885C15.89,9.809 15.592,9.773 15.291,9.773C14.99,9.773 14.693,9.795 14.391,9.84L14.391,4.373L1.8,4.373L1.8,16.973L7.268,16.973C7.223,17.274 7.2,17.571 7.2,17.873C7.2,18.174 7.236,18.471 7.313,18.773L1.8,18.773ZM1.8,16.973L1.8,4.373L1.8,16.973ZM3.6,7.973L3.6,6.173L12.6,6.173L12.6,7.973L3.6,7.973ZM3.6,11.577L3.6,9.773L12.6,9.773L12.6,10.538C12.479,10.614 12.362,10.7 12.249,10.799C12.137,10.898 12.02,11.006 11.903,11.127L11.453,11.577L3.6,11.577ZM3.6,15.177L3.6,13.373L9.653,13.373L8.55,14.475C8.429,14.597 8.32,14.714 8.226,14.826C8.127,14.939 8.041,15.056 7.965,15.177L3.6,15.177ZM8.1,3.698C8.294,3.698 8.456,3.635 8.586,3.504C8.712,3.378 8.775,3.216 8.775,3.023C8.775,2.829 8.712,2.667 8.586,2.537C8.46,2.411 8.298,2.348 8.1,2.348C7.902,2.348 7.745,2.411 7.614,2.537C7.488,2.663 7.425,2.825 7.425,3.023C7.425,3.221 7.488,3.378 7.614,3.504C7.74,3.63 7.902,3.698 8.1,3.698ZM13.838,19.74C13.284,20.294 12.614,20.573 11.835,20.573C11.057,20.573 10.386,20.294 9.833,19.74C9.279,19.187 9,18.516 9,17.738C9,16.959 9.279,16.289 9.833,15.735L13.163,12.405C13.716,11.852 14.387,11.573 15.165,11.573C15.944,11.573 16.614,11.852 17.168,12.405C17.721,12.959 18,13.629 18,14.408C18,15.186 17.721,15.857 17.168,16.41L13.838,19.74ZM12.555,18.458L13.59,17.423L12.15,15.983L11.115,17.018C10.903,17.229 10.8,17.468 10.8,17.738C10.8,18.008 10.903,18.246 11.115,18.458C11.327,18.669 11.565,18.773 11.835,18.773C12.105,18.773 12.344,18.669 12.555,18.458ZM14.85,16.163L15.885,15.128C16.096,14.916 16.2,14.678 16.2,14.408C16.2,14.138 16.096,13.899 15.885,13.688C15.674,13.476 15.435,13.373 15.165,13.373C14.895,13.373 14.657,13.476 14.445,13.688L13.41,14.723L14.85,16.163Z" style="fill:white;fill-rule:nonzero;"/>
    </g>
</svg>
