<?xml version="1.0" encoding="UTF-8" standalone="no"?>
<!DOCTYPE svg PUBLIC "-//W3C//DTD SVG 1.1//EN" "http://www.w3.org/Graphics/SVG/1.1/DTD/svg11.dtd">
<svg width="100%" height="100%" viewBox="0 0 55 55" version="1.1" xmlns="http://www.w3.org/2000/svg" xmlns:xlink="http://www.w3.org/1999/xlink" xml:space="preserve" xmlns:serif="http://www.serif.com/" style="fill-rule:evenodd;clip-rule:evenodd;stroke-linejoin:round;stroke-miterlimit:2;">
    <g transform="matrix(27.5222,0,0,27.5222,-355.489,-690.234)">
        <circle cx="13.916" cy="26.078" r="0.999" style="fill:rgb(19,78,124);"/>
    </g>
    <g transform="matrix(1,0,0,1,13.5028,14.53)">
        <path d="M5.59,22.326L2.365,25.517C1.919,25.958 1.417,26.053 0.848,25.808C0.279,25.562 0,25.127 0,24.497L0.106,2.778C0.106,2.014 0.385,1.356 0.937,0.815C1.49,0.273 2.142,0 2.907,0L25.222,0.106C25.986,0.106 26.644,0.385 27.186,0.937C27.727,1.484 28,2.142 27.994,2.912L27.911,19.648C27.911,20.413 27.632,21.071 27.08,21.612C26.527,22.153 25.875,22.427 25.105,22.421L5.579,22.326L5.59,22.326ZM4.418,19.531L25.127,19.632L25.211,2.895L2.895,2.789L2.806,21.093L4.418,19.531ZM8.424,12.58C8.82,12.58 9.149,12.452 9.417,12.184C9.685,11.916 9.819,11.587 9.824,11.191C9.83,10.795 9.696,10.466 9.428,10.198C9.16,9.93 8.831,9.796 8.435,9.791C8.039,9.785 7.71,9.919 7.442,10.187C7.174,10.455 7.04,10.784 7.035,11.18C7.029,11.576 7.163,11.905 7.431,12.173C7.699,12.441 8.028,12.575 8.424,12.58ZM14.003,12.608C14.399,12.608 14.728,12.48 14.996,12.212C15.264,11.944 15.398,11.615 15.403,11.219C15.409,10.823 15.275,10.494 15.007,10.226C14.739,9.958 14.41,9.824 14.014,9.819C13.618,9.813 13.289,9.947 13.021,10.215C12.753,10.483 12.619,10.812 12.614,11.208C12.608,11.604 12.742,11.933 13.01,12.201C13.278,12.469 13.607,12.602 14.003,12.608ZM19.582,12.636C19.978,12.636 20.307,12.508 20.575,12.24C20.842,11.972 20.976,11.643 20.982,11.247C20.987,10.851 20.854,10.522 20.586,10.254C20.318,9.986 19.989,9.852 19.593,9.847C19.197,9.841 18.868,9.975 18.6,10.243C18.332,10.511 18.198,10.84 18.193,11.236C18.187,11.632 18.321,11.961 18.589,12.229C18.856,12.496 19.186,12.63 19.582,12.636Z" style="fill:white;fill-rule:nonzero;"/>
    </g>
</svg>
