<?xml version="1.0" encoding="UTF-8" standalone="no"?>
<!DOCTYPE svg PUBLIC "-//W3C//DTD SVG 1.1//EN" "http://www.w3.org/Graphics/SVG/1.1/DTD/svg11.dtd">
<svg width="100%" height="100%" viewBox="0 0 55 55" version="1.1" xmlns="http://www.w3.org/2000/svg" xmlns:xlink="http://www.w3.org/1999/xlink" xml:space="preserve" xmlns:serif="http://www.serif.com/" style="fill-rule:evenodd;clip-rule:evenodd;stroke-linejoin:round;stroke-miterlimit:2;">
    <g transform="matrix(27.5222,0,0,27.5222,-355.489,-690.234)">
        <circle cx="13.916" cy="26.078" r="0.999" style="fill:rgb(19,78,124);"/>
    </g>
    <g transform="matrix(1,0,0,1,13.5,14.4759)">
        <path d="M5.6,22.4L2.38,25.62C1.938,26.062 1.428,26.163 0.857,25.917C0.286,25.67 0,25.234 0,24.606L0,2.8C0,2.027 0.274,1.372 0.823,0.823C1.372,0.274 2.027,0 2.8,0L25.2,0C25.973,0 26.628,0.274 27.177,0.823C27.726,1.372 28,2.033 28,2.8L28,19.6C28,20.373 27.726,21.028 27.177,21.577C26.628,22.126 25.967,22.4 25.2,22.4L5.6,22.4ZM4.413,19.6L25.2,19.6L25.2,2.8L2.8,2.8L2.8,21.174L4.413,19.6ZM7,8.4L21,8.4C21.398,8.4 21.728,8.266 21.997,7.997C22.266,7.728 22.4,7.398 22.4,7C22.4,6.602 22.266,6.272 21.997,6.003C21.728,5.734 21.398,5.6 21,5.6L7,5.6C6.602,5.6 6.272,5.734 6.003,6.003C5.734,6.272 5.6,6.602 5.6,7C5.6,7.398 5.734,7.728 6.003,7.997C6.272,8.266 6.602,8.4 7,8.4ZM7,12.6L21,12.6C21.398,12.6 21.728,12.466 21.997,12.197C22.266,11.928 22.4,11.598 22.4,11.2C22.4,10.802 22.266,10.472 21.997,10.203C21.728,9.934 21.398,9.8 21,9.8L7,9.8C6.602,9.8 6.272,9.934 6.003,10.203C5.734,10.472 5.6,10.802 5.6,11.2C5.6,11.598 5.734,11.928 6.003,12.197C6.272,12.466 6.602,12.6 7,12.6ZM7,16.8L15.4,16.8C15.798,16.8 16.128,16.666 16.397,16.397C16.666,16.128 16.8,15.798 16.8,15.4C16.8,15.002 16.666,14.672 16.397,14.403C16.128,14.134 15.798,14 15.4,14L7,14C6.602,14 6.272,14.134 6.003,14.403C5.734,14.672 5.6,15.002 5.6,15.4C5.6,15.798 5.734,16.128 6.003,16.397C6.272,16.666 6.602,16.8 7,16.8Z" style="fill:white;fill-rule:nonzero;"/>
    </g>
</svg>
