<?xml version="1.0" encoding="UTF-8" standalone="no"?>
<!DOCTYPE svg PUBLIC "-//W3C//DTD SVG 1.1//EN" "http://www.w3.org/Graphics/SVG/1.1/DTD/svg11.dtd">
<svg width="100%" height="100%" viewBox="0 0 55 55" version="1.1" xmlns="http://www.w3.org/2000/svg" xmlns:xlink="http://www.w3.org/1999/xlink" xml:space="preserve" xmlns:serif="http://www.serif.com/" style="fill-rule:evenodd;clip-rule:evenodd;stroke-linejoin:round;stroke-miterlimit:2;">
    <g transform="matrix(27.5222,0,0,27.5222,-355.489,-690.234)">
        <circle cx="13.916" cy="26.078" r="0.999" style="fill:rgb(19,78,124);"/>
    </g>
    <g transform="matrix(1,0,0,1,13.5,14.4759)">
        <path d="M5.6,22.4L2.38,25.62C1.938,26.062 1.428,26.163 0.857,25.917C0.286,25.67 0,25.234 0,24.606L0,2.8C0,2.027 0.274,1.372 0.823,0.823C1.372,0.274 2.027,0 2.8,0L25.2,0C25.973,0 26.628,0.274 27.177,0.823C27.726,1.372 28,2.033 28,2.8L28,19.6C28,20.373 27.726,21.028 27.177,21.577C26.628,22.126 25.967,22.4 25.2,22.4L5.6,22.4ZM4.413,19.6L25.2,19.6L25.2,2.8L2.8,2.8L2.8,21.174L4.413,19.6ZM8.4,16.8L16.8,16.8C17.198,16.8 17.528,16.666 17.797,16.397C18.066,16.128 18.2,15.798 18.2,15.4L18.2,12.6L20.406,14.806C20.524,14.924 20.653,14.952 20.793,14.896C20.933,14.84 21.006,14.728 21.006,14.566L21.006,7.846C21.006,7.683 20.938,7.571 20.793,7.515C20.653,7.459 20.524,7.487 20.406,7.605L18.2,9.811L18.2,7.011C18.2,6.614 18.066,6.283 17.797,6.014C17.528,5.746 17.198,5.611 16.8,5.611L8.4,5.611C8.002,5.611 7.672,5.746 7.403,6.014C7.134,6.283 7,6.614 7,7.011L7,15.411C7,15.809 7.134,16.139 7.403,16.408C7.672,16.677 8.002,16.811 8.4,16.811L8.4,16.8Z" style="fill:white;fill-rule:nonzero;"/>
    </g>
</svg>
