<?xml version="1.0" encoding="UTF-8" standalone="no"?>
<!DOCTYPE svg PUBLIC "-//W3C//DTD SVG 1.1//EN" "http://www.w3.org/Graphics/SVG/1.1/DTD/svg11.dtd">
<svg width="100%" height="100%" viewBox="0 0 22 22" version="1.1" xmlns="http://www.w3.org/2000/svg" xmlns:xlink="http://www.w3.org/1999/xlink" xml:space="preserve" xmlns:serif="http://www.serif.com/" style="fill-rule:evenodd;clip-rule:evenodd;stroke-linejoin:round;stroke-miterlimit:2;">
    <g transform="matrix(2.35647,0,0,2.35647,-12.1947,-24.4319)">
        <circle cx="9.843" cy="15.036" r="4.668" style="fill:white;"/>
    </g>
    <g transform="matrix(0.727273,0,0,0.727273,3,3)">
        <path d="M1.774,5.703L0.233,4.979C0.078,4.902 0,4.787 0,4.631C0,4.475 0.078,4.362 0.233,4.283L1.774,3.559L2.502,2.026C2.58,1.871 2.695,1.794 2.852,1.794C3.009,1.794 3.123,1.871 3.202,2.026L3.93,3.559L5.472,4.283C5.627,4.36 5.704,4.477 5.704,4.631C5.704,4.786 5.627,4.902 5.472,4.979L3.93,5.703L3.202,7.237C3.125,7.391 3.007,7.468 2.852,7.468C2.697,7.468 2.58,7.391 2.502,7.237L1.774,5.703ZM11,22C10.69,22 10.428,21.894 10.214,21.681C10,21.468 9.893,21.209 9.893,20.899L9.893,18.381C8.069,18.13 6.517,17.372 5.237,16.108C3.956,14.844 3.19,13.335 2.938,11.578C2.88,11.25 2.963,10.966 3.185,10.724C3.407,10.482 3.704,10.362 4.073,10.362C4.344,10.362 4.582,10.463 4.785,10.666C4.989,10.868 5.109,11.105 5.149,11.374C5.401,12.763 6.07,13.921 7.156,14.847C8.243,15.774 9.522,16.237 10.998,16.237C12.474,16.237 13.752,15.774 14.84,14.847C15.927,13.921 16.596,12.763 16.848,11.374C16.885,11.105 17.011,10.868 17.225,10.666C17.439,10.463 17.68,10.362 17.953,10.362C18.303,10.362 18.587,10.482 18.812,10.724C19.034,10.966 19.117,11.25 19.058,11.578C18.806,13.335 18.039,14.844 16.76,16.108C15.48,17.372 13.926,18.13 12.104,18.381L12.104,20.899C12.104,21.208 11.997,21.468 11.783,21.681C11.569,21.894 11.307,22 10.997,22L11,22ZM11,13.779C10.05,13.779 9.245,13.446 8.584,12.78C7.924,12.115 7.594,11.309 7.594,10.364L7.594,3.388C7.594,2.443 7.924,1.642 8.584,0.985C9.245,0.328 10.048,0 11,0C11.952,0 12.755,0.328 13.416,0.985C14.075,1.642 14.406,2.443 14.406,3.388L14.406,10.364C14.406,11.309 14.075,12.115 13.416,12.78C12.755,13.446 11.95,13.779 11,13.779ZM11,11.551C11.329,11.551 11.605,11.439 11.829,11.218C12.054,10.997 12.164,10.712 12.164,10.364L12.164,3.388C12.164,3.06 12.052,2.784 11.829,2.563C11.607,2.341 11.329,2.23 11,2.23C10.671,2.23 10.393,2.341 10.171,2.563C9.948,2.784 9.836,3.06 9.836,3.388L9.836,10.364C9.836,10.712 9.948,10.997 10.171,11.218C10.393,11.439 10.671,11.551 11,11.551ZM17.286,3.012L16.529,2.636C16.373,2.578 16.296,2.472 16.296,2.317C16.296,2.163 16.373,2.057 16.529,1.998L17.286,1.623L17.663,0.87C17.722,0.715 17.829,0.638 17.984,0.638C18.139,0.638 18.246,0.715 18.305,0.87L18.682,1.623L19.439,1.998C19.594,2.057 19.672,2.163 19.672,2.317C19.672,2.472 19.594,2.578 19.439,2.636L18.682,3.012L18.305,3.765C18.246,3.919 18.139,3.997 17.984,3.997C17.829,3.997 17.722,3.919 17.663,3.765L17.286,3.012ZM19.613,7.643L18.856,7.268C18.701,7.209 18.624,7.103 18.624,6.949C18.624,6.794 18.701,6.688 18.856,6.63L19.613,6.254L19.991,5.501C20.05,5.346 20.157,5.269 20.312,5.269C20.467,5.269 20.574,5.346 20.633,5.501L21.01,6.254L21.767,6.63C21.922,6.688 22,6.794 22,6.949C22,7.103 21.922,7.209 21.767,7.268L21.01,7.643L20.633,8.396C20.574,8.551 20.467,8.628 20.312,8.628C20.157,8.628 20.05,8.551 19.991,8.396L19.613,7.643Z" style="fill:rgb(33,134,212);fill-rule:nonzero;"/>
    </g>
</svg>
