<?xml version="1.0" encoding="UTF-8" standalone="no"?>
<!DOCTYPE svg PUBLIC "-//W3C//DTD SVG 1.1//EN" "http://www.w3.org/Graphics/SVG/1.1/DTD/svg11.dtd">
<svg width="100%" height="100%" viewBox="0 0 55 55" version="1.1" xmlns="http://www.w3.org/2000/svg" xmlns:xlink="http://www.w3.org/1999/xlink" xml:space="preserve" xmlns:serif="http://www.serif.com/" style="fill-rule:evenodd;clip-rule:evenodd;stroke-linejoin:round;stroke-miterlimit:2;">
    <g transform="matrix(27.5222,0,0,27.5222,-355.489,-690.234)">
        <circle cx="13.916" cy="26.078" r="0.999" style="fill:rgb(72,200,87);"/>
    </g>
    <g transform="matrix(1,0,0,1,13.5158,13.5157)">
        <path d="M23.738,4.174C21.15,1.583 17.708,0.155 14.042,0.154C6.487,0.154 0.338,6.302 0.335,13.86C0.334,16.275 0.965,18.633 2.165,20.712L0.22,27.815L7.486,25.909C9.488,27.001 11.742,27.576 14.036,27.577L14.042,27.577C14.041,27.577 14.042,27.577 14.042,27.577C21.596,27.577 27.745,21.428 27.748,13.87C27.75,10.208 26.326,6.764 23.738,4.174ZM8.476,14.358C8.304,14.13 7.077,12.501 7.077,10.816C7.077,9.13 7.962,8.301 8.276,7.959C8.59,7.616 8.961,7.53 9.189,7.53C9.418,7.53 9.646,7.532 9.846,7.542C10.056,7.553 10.338,7.462 10.616,8.13C10.902,8.816 11.586,10.502 11.672,10.673C11.758,10.845 11.815,11.044 11.701,11.273C11.587,11.501 11.53,11.644 11.358,11.844C11.187,12.044 10.999,12.291 10.845,12.444C10.673,12.615 10.494,12.8 10.694,13.143C10.894,13.486 11.581,14.608 12.599,15.516C13.908,16.683 15.011,17.044 15.354,17.216C15.696,17.387 15.896,17.359 16.096,17.13C16.295,16.901 16.952,16.13 17.18,15.787C17.408,15.445 17.637,15.502 17.951,15.616C18.265,15.73 19.948,16.559 20.291,16.73C20.633,16.901 20.862,16.987 20.947,17.13C21.033,17.273 21.033,17.959 20.747,18.759C20.462,19.559 19.094,20.289 18.436,20.387C17.846,20.475 17.099,20.512 16.278,20.251C15.781,20.093 15.143,19.883 14.326,19.53C10.891,18.046 8.647,14.587 8.476,14.358Z" style="fill:white;"/>
    </g>
</svg>
