<?xml version="1.0" standalone="no"?>
<!DOCTYPE svg PUBLIC "-//W3C//DTD SVG 20010904//EN"
 "http://www.w3.org/TR/2001/REC-SVG-20010904/DTD/svg10.dtd">
<svg version="1.0" xmlns="http://www.w3.org/2000/svg"
 width="700.000000pt" height="700.000000pt" viewBox="0 0 700.000000 700.000000"
 preserveAspectRatio="xMidYMid meet">
<metadata>
Created by potrace 1.14, written by Peter Selinger 2001-2017
</metadata>
<g transform="translate(0.000000,700.000000) scale(0.100000,-0.100000)"
fill="#000000" stroke="none">
<path d="M2217 6979 c-20 -11 -49 -38 -65 -61 l-27 -42 -2 -995 c0 -548 -1
-998 -2 -1001 -1 -3 -261 -5 -579 -5 -317 -1 -603 -4 -634 -8 -224 -27 -430
-129 -599 -297 -124 -123 -196 -236 -248 -388 -60 -176 -60 -169 -61 -1079 0
-905 -2 -882 55 -931 56 -49 7 -47 1065 -49 547 -1 997 -2 1000 -2 3 -1 5
-258 4 -572 0 -314 4 -601 8 -638 55 -421 350 -758 768 -878 l95 -27 867 -4
c845 -3 869 -2 912 17 30 13 54 34 73 62 l28 43 1 822 c1 745 -1 823 -15 826
-13 3 -263 2 -321 -1 -13 -1 -15 -84 -14 -698 0 -384 -2 -704 -4 -710 -6 -19
-1401 -15 -1497 4 -276 56 -500 293 -540 573 -5 30 -9 362 -9 737 l-1 681 -31
39 c-17 21 -46 47 -65 58 -33 19 -55 20 -1024 21 -545 1 -993 2 -996 3 -3 0
-5 331 -4 734 2 820 -1 777 77 937 57 119 177 238 298 298 156 76 138 75 920
77 630 1 698 3 725 18 46 26 60 39 81 77 18 34 19 76 19 1030 l1 995 734 0
c672 0 740 -2 797 -18 174 -49 306 -143 401 -285 40 -60 85 -157 96 -207 3
-17 9 -41 12 -55 4 -14 7 -340 8 -725 3 -760 0 -729 58 -781 55 -50 8 -48
1063 -50 545 -1 994 -2 998 -3 4 0 6 -333 5 -738 -3 -669 -5 -744 -21 -798
-55 -188 -174 -335 -341 -426 -40 -21 -108 -49 -152 -60 -79 -22 -84 -22
-1449 -23 -970 -1 -1388 1 -1431 9 -209 38 -368 237 -358 446 12 255 216 439
469 422 184 -12 218 -4 265 63 30 45 38 96 24 164 -46 230 97 453 331 516 284
77 572 -174 540 -471 -14 -126 -11 -160 18 -204 47 -71 86 -81 262 -68 133 11
255 -34 343 -124 92 -94 132 -197 129 -328 l-2 -76 172 0 c94 0 174 3 178 6
11 11 8 160 -4 226 -66 355 -373 632 -723 652 -11 1 -18 9 -18 21 0 12 -7 56
-16 98 -54 263 -243 484 -494 578 -108 41 -151 48 -280 49 -156 0 -234 -17
-363 -80 -213 -105 -393 -347 -423 -573 -8 -58 -13 -84 -16 -87 -2 -2 -21 -6
-43 -9 -22 -3 -51 -8 -65 -11 -14 -3 -34 -7 -45 -9 -112 -22 -283 -124 -377
-224 -147 -157 -221 -355 -213 -567 3 -106 7 -127 32 -215 9 -30 15 -55 13
-55 -7 0 45 -94 82 -150 94 -140 245 -257 400 -309 129 -44 92 -43 1599 -41
789 1 1445 5 1459 9 14 4 36 9 50 12 369 75 685 378 787 759 l27 100 4 860 c3
978 8 919 -76 978 l-47 32 -992 0 c-546 1 -995 4 -999 8 -4 3 -7 282 -8 619
-1 337 -4 618 -8 624 -4 7 -10 29 -14 50 -3 21 -19 75 -34 121 -104 305 -362
558 -665 653 -156 48 -167 49 -1060 49 -818 0 -841 0 -878 -20z"/>
</g>
</svg>
