<?xml version="1.0" encoding="UTF-8" standalone="no"?>
<!DOCTYPE svg PUBLIC "-//W3C//DTD SVG 1.1//EN" "http://www.w3.org/Graphics/SVG/1.1/DTD/svg11.dtd">
<svg width="100%" height="100%" viewBox="0 0 1024 1024" version="1.1" xmlns="http://www.w3.org/2000/svg" xmlns:xlink="http://www.w3.org/1999/xlink" xml:space="preserve" xmlns:serif="http://www.serif.com/" style="fill-rule:evenodd;clip-rule:evenodd;stroke-linejoin:round;stroke-miterlimit:2;">
    <g transform="matrix(14.3217,0,0,14.3217,0,0)">
        <g transform="matrix(0.171803,0,0,0.103576,0,0)">
            <rect x="0" y="0" width="416.175" height="690.311" style="fill:url(#_Linear1);"/>
        </g>
        <g transform="matrix(0.809511,0,0,0.808998,6.98242,6.98242)">
            <path d="M69.291,21.577L49.52,21.577L49.52,10.563C49.52,4.736 44.78,0 38.955,0L23.35,0C22.357,0 21.561,0.797 21.561,1.79L21.561,21.577L10.558,21.577C4.734,21.577 0,26.319 0,32.14L0,47.759C0,48.745 0.803,49.549 1.789,49.549L21.561,49.549L21.561,60.556C21.561,66.383 26.295,71.119 32.112,71.119L47.731,71.119C48.717,71.119 49.52,70.316 49.52,69.329L49.52,53.103L45.948,53.103L45.948,67.539L32.119,67.539C28.273,67.539 25.139,64.41 25.139,60.55L25.139,47.759C25.139,47.263 24.936,46.818 24.616,46.492C24.29,46.165 23.846,45.969 23.356,45.969L3.585,45.969L3.585,32.14C3.585,28.286 6.719,25.15 10.571,25.15L23.356,25.15C24.342,25.15 25.145,24.347 25.145,23.36L25.145,3.573L38.968,3.573C42.821,3.573 45.955,6.709 45.955,10.563L45.955,23.36C45.955,24.347 46.751,25.15 47.744,25.15L67.515,25.15L67.515,38.979C67.515,42.827 64.388,45.969 60.529,45.969L33.856,45.969C33.751,45.969 33.647,45.963 33.549,45.956L33.418,45.956C31.159,45.721 29.383,43.807 29.383,41.481C29.383,39.006 31.407,36.987 33.882,36.987C34.254,36.987 34.62,37.026 34.979,37.118C35.586,37.274 36.226,37.091 36.67,36.654C37.12,36.203 37.297,35.563 37.14,34.955C37.049,34.596 37.003,34.23 37.003,33.858L37.009,33.858C37.009,31.382 39.027,29.363 41.502,29.363C43.976,29.363 45.994,31.382 45.994,33.858L46.001,33.858C46.001,34.23 45.955,34.596 45.863,34.955C45.707,35.563 45.89,36.203 46.334,36.654C46.778,37.098 47.417,37.274 48.025,37.118C48.384,37.026 48.749,36.987 49.122,36.987C51.596,36.987 53.621,39.006 53.621,41.481C53.621,41.808 53.575,42.122 53.51,42.429L57.133,42.429C57.172,42.115 57.199,41.801 57.199,41.481C57.199,37.176 53.81,33.642 49.559,33.427C49.559,33.316 49.533,33.211 49.526,33.1C49.526,33.054 49.52,33.002 49.513,32.956C49.487,32.734 49.455,32.519 49.416,32.303C49.409,32.257 49.396,32.212 49.389,32.166C49.344,31.95 49.285,31.735 49.226,31.526C49.213,31.487 49.2,31.441 49.187,31.402C49.122,31.186 49.043,30.984 48.958,30.775C48.945,30.735 48.932,30.703 48.913,30.67C48.821,30.461 48.723,30.259 48.619,30.063C48.606,30.036 48.586,30.004 48.573,29.978C48.462,29.775 48.345,29.579 48.214,29.39C48.201,29.37 48.188,29.344 48.168,29.324C48.038,29.128 47.894,28.939 47.744,28.756C47.731,28.743 47.718,28.723 47.705,28.71C47.548,28.527 47.385,28.344 47.215,28.175C47.202,28.168 47.195,28.155 47.182,28.142C47.006,27.965 46.823,27.802 46.634,27.645C46.627,27.639 46.614,27.633 46.608,27.626C46.412,27.469 46.216,27.319 46.007,27.175C46.007,27.175 45.994,27.169 45.987,27.162C45.779,27.018 45.563,26.888 45.341,26.77C45.341,26.77 45.328,26.77 45.328,26.764C45.106,26.64 44.871,26.528 44.636,26.43L44.623,26.43C44.388,26.333 44.14,26.241 43.892,26.163L43.879,26.163C43.63,26.084 43.376,26.019 43.114,25.967L43.108,25.967C42.586,25.862 42.044,25.803 41.495,25.803L41.489,25.803C40.934,25.803 40.398,25.862 39.876,25.967L39.869,25.967C39.608,26.019 39.353,26.084 39.105,26.163L39.092,26.163C38.844,26.241 38.603,26.333 38.361,26.43L38.348,26.43C38.113,26.528 37.878,26.64 37.656,26.764C37.656,26.764 37.643,26.764 37.643,26.77C37.421,26.894 37.205,27.025 36.996,27.162C36.996,27.162 36.983,27.169 36.977,27.175C36.768,27.312 36.565,27.469 36.376,27.626C36.37,27.626 36.363,27.639 36.356,27.645C36.167,27.802 35.984,27.972 35.808,28.142C35.795,28.148 35.788,28.162 35.775,28.175C35.606,28.344 35.442,28.527 35.286,28.71C35.273,28.723 35.259,28.743 35.246,28.756C35.096,28.939 34.953,29.128 34.822,29.324C34.809,29.344 34.796,29.37 34.776,29.39C34.646,29.579 34.528,29.775 34.417,29.978C34.404,30.004 34.385,30.036 34.372,30.063C34.267,30.259 34.169,30.461 34.078,30.67C34.065,30.703 34.052,30.735 34.032,30.775C33.947,30.977 33.869,31.186 33.803,31.402C33.79,31.441 33.777,31.48 33.764,31.526C33.699,31.735 33.647,31.95 33.601,32.166C33.588,32.212 33.581,32.257 33.575,32.303C33.536,32.519 33.496,32.741 33.477,32.956C33.477,33.002 33.47,33.054 33.464,33.1C33.451,33.211 33.438,33.316 33.431,33.427C29.18,33.649 25.792,37.183 25.792,41.481C25.792,42.527 25.994,43.526 26.36,44.441L26.314,44.441C26.582,45.113 26.928,45.74 27.352,46.309C28.821,48.275 31.172,49.555 33.816,49.555L60.516,49.555C66.34,49.555 71.074,44.819 71.074,38.992L71.074,23.373C71.074,22.387 70.277,21.583 69.285,21.583L69.291,21.577Z" style="fill:url(#_Linear2);fill-rule:nonzero;"/>
        </g>
    </g>
    <defs>
        <linearGradient id="_Linear1" x1="0" y1="0" x2="1" y2="0" gradientUnits="userSpaceOnUse" gradientTransform="matrix(2.54834e-14,690.311,-416.175,4.22694e-14,208.088,0)"><stop offset="0" style="stop-color:rgb(11,45,71);stop-opacity:1"/><stop offset="1" style="stop-color:rgb(23,94,149);stop-opacity:1"/></linearGradient>
        <linearGradient id="_Linear2" x1="0" y1="0" x2="1" y2="0" gradientUnits="userSpaceOnUse" gradientTransform="matrix(71.0739,0,0,71.0739,0.00652952,35.5629)"><stop offset="0" style="stop-color:rgb(254,193,13);stop-opacity:1"/><stop offset="1" style="stop-color:rgb(254,255,255);stop-opacity:1"/></linearGradient>
    </defs>
</svg>
